<?xml version="1.0" encoding="utf-8"?>
<!-- Generator: Adobe Illustrator 26.1.0, SVG Export Plug-In . SVG Version: 6.00 Build 0)  -->
<svg version="1.1" id="图层_1" xmlns="http://www.w3.org/2000/svg" xmlns:xlink="http://www.w3.org/1999/xlink" x="0px" y="0px"
	 viewBox="0 0 340.16 340.16" enable-background="new 0 0 340.16 340.16" xml:space="preserve">
<path fill-rule="evenodd" clip-rule="evenodd" fill="#231815" d="M282.36,218.1l0.45,0.2l-0.05,0.1c-0.34,0.76-0.44,1.36-0.29,1.79
	c0.14,0.43,0.56,0.8,1.24,1.11l4.11,1.83l8.99-1.85c0.53-0.12,0.97-0.32,1.32-0.6c0.35-0.28,0.65-0.67,0.9-1.17l0.45,0.2l-3.06,6.89
	l-0.44-0.2c0.23-0.67,0.36-1.16,0.37-1.46c0.01-0.3-0.08-0.49-0.27-0.58c-0.22-0.1-0.57-0.1-1.07-0.01
	c-0.03,0.01-0.06,0.02-0.07,0.02l-6.67,1.29l3.29,5.08c0.31,0.5,0.54,0.83,0.67,0.99c0.14,0.16,0.26,0.26,0.37,0.32
	c0.2,0.09,0.41,0.04,0.62-0.13c0.21-0.18,0.47-0.57,0.8-1.16l0.45,0.2l-2.08,4.67l-0.45-0.2c0.17-0.46,0.22-0.91,0.13-1.35
	c-0.08-0.44-0.37-1.04-0.86-1.81l-4.22-6.63l-4.52-2.01c-0.63-0.28-1.14-0.32-1.52-0.12c-0.38,0.2-0.77,0.73-1.18,1.58l-0.45-0.2
	L282.36,218.1z M286.9,211.9c-0.35-1.18-0.53-2.35-0.55-3.52c-0.02-1.16,0.14-2.33,0.47-3.47c0.74-2.57,2.07-4.43,3.99-5.59
	c1.92-1.16,4.08-1.39,6.47-0.71c2.47,0.71,4.26,2.09,5.36,4.14c1.1,2.05,1.28,4.35,0.55,6.9c-0.28,1-0.73,1.94-1.34,2.84
	c-0.61,0.9-0.93,1.39-0.95,1.48c-0.05,0.18-0.02,0.37,0.09,0.54c0.11,0.18,0.29,0.33,0.55,0.48l-0.1,0.39l-4.9-1.14l0.14-0.48
	c1.61-0.14,2.84-0.54,3.7-1.18c0.86-0.64,1.48-1.63,1.86-2.96c0.53-1.86,0.3-3.54-0.71-5.05c-1.01-1.51-2.61-2.58-4.81-3.21
	c-2.22-0.64-4.17-0.58-5.82,0.18c-1.65,0.76-2.75,2.09-3.3,3.99c-0.2,0.7-0.28,1.39-0.25,2.09c0.04,0.7,0.19,1.31,0.45,1.85
	l4.24,1.21c0.91,0.26,1.5,0.29,1.78,0.09c0.28-0.2,0.59-0.82,0.93-1.86l0.5,0.14l-1.92,6.7l-0.5-0.14c0.19-0.77,0.22-1.3,0.07-1.61
	c-0.15-0.31-0.62-0.58-1.41-0.81L286.9,211.9z M300.51,177.41c2.55,0.31,4.5,1.33,5.85,3.04c1.35,1.72,1.87,3.84,1.56,6.36
	c-0.31,2.53-1.33,4.46-3.06,5.8c-1.72,1.34-3.86,1.85-6.41,1.54c-2.56-0.31-4.52-1.33-5.87-3.05c-1.36-1.72-1.88-3.84-1.57-6.37
	c0.31-2.52,1.33-4.45,3.06-5.79C295.81,177.6,297.95,177.09,300.51,177.41z M300.17,180.19c-2.33-0.29-4.24-0.01-5.72,0.83
	c-1.48,0.84-2.33,2.11-2.54,3.82c-0.21,1.71,0.31,3.15,1.54,4.33c1.24,1.18,3.02,1.91,5.35,2.19c2.31,0.28,4.21,0.01,5.69-0.84
	c1.48-0.84,2.33-2.12,2.54-3.83c0.21-1.7-0.3-3.14-1.54-4.32C304.26,181.2,302.48,180.48,300.17,180.19z M292.27,159.64l0.49-0.01
	l0,0.12c0.01,0.87,0.19,1.46,0.54,1.77c0.34,0.31,1,0.45,1.98,0.44l10.61-0.19c0.96-0.02,1.56-0.18,1.82-0.5
	c0.26-0.32,0.38-0.95,0.37-1.89l0.49-0.02l0.13,7.42l-0.5,0.01l0-0.11c-0.01-0.87-0.19-1.47-0.52-1.8
	c-0.33-0.33-0.92-0.49-1.75-0.48l-10.96,0.19c-0.73,0.01-1.19,0.12-1.37,0.33c-0.18,0.21-0.26,0.65-0.25,1.33l0.05,2.82
	c0.02,1.21,0.31,2.2,0.85,2.98c0.54,0.78,1.4,1.39,2.56,1.84l0.01,0.5l-4.32-1.26L292.27,159.64z M297.19,138.7
	c2.53-0.45,4.69-0.05,6.49,1.2c1.8,1.25,2.91,3.12,3.35,5.62c0.44,2.51,0.03,4.65-1.23,6.44c-1.26,1.79-3.15,2.9-5.68,3.35
	c-2.54,0.45-4.71,0.05-6.51-1.2c-1.8-1.25-2.92-3.13-3.37-5.63c-0.44-2.5-0.03-4.64,1.24-6.43
	C292.75,140.26,294.65,139.14,297.19,138.7z M297.68,141.46c-2.31,0.41-4.05,1.23-5.23,2.47c-1.17,1.24-1.61,2.7-1.32,4.39
	c0.3,1.7,1.21,2.93,2.74,3.69c1.53,0.76,3.45,0.94,5.76,0.53c2.3-0.4,4.03-1.22,5.2-2.46c1.17-1.24,1.61-2.7,1.31-4.4
	c-0.3-1.69-1.21-2.92-2.74-3.68C301.88,141.23,299.97,141.06,297.68,141.46z M286.69,123.59c-0.86,0.28-1.37,0.6-1.52,0.97
	c-0.15,0.37-0.11,1.02,0.12,1.97l-0.47,0.15l-1.82-5.58l0.47-0.15c0.37,0.91,0.72,1.46,1.06,1.67c0.34,0.2,0.94,0.17,1.8-0.11
	l10.84-3.52c0.42-0.47,0.7-0.92,0.83-1.35c0.13-0.43,0.14-0.9,0.02-1.41l0.47-0.15l1.3,4l-8.04,12.76l8.43-2.74
	c0.86-0.28,1.37-0.6,1.53-0.96c0.16-0.36,0.11-1.01-0.13-1.95l0.47-0.15l1.81,5.56l-0.47,0.15c-0.36-0.9-0.71-1.45-1.05-1.66
	c-0.34-0.2-0.94-0.17-1.8,0.11l-12.91,4.2l-0.15-0.47l9.1-14.54L286.69,123.59z M272.8,103.23l0.43-0.24
	c0.49,0.82,0.94,1.3,1.35,1.43c0.41,0.13,0.99-0.02,1.73-0.45l9.48-5.47c0.72-0.42,1.13-0.85,1.23-1.28
	c0.09-0.43-0.08-1.07-0.53-1.9l0.42-0.24l3.69,6.38l-0.42,0.24c-0.52-0.81-0.99-1.28-1.39-1.4c-0.41-0.12-0.98,0.02-1.7,0.44
	l-3.52,2.03c-0.26,0.15-0.41,0.29-0.45,0.43c-0.04,0.13,0.02,0.33,0.16,0.58l3.47,6c0.13,0.22,0.25,0.34,0.39,0.36
	c0.13,0.02,0.34-0.05,0.63-0.22l3.47-2c0.72-0.41,1.12-0.83,1.22-1.26c0.1-0.42-0.08-1.06-0.52-1.91l0.42-0.26l3.7,6.41l-0.43,0.25
	c-0.49-0.81-0.95-1.28-1.36-1.42c-0.41-0.13-0.99,0.01-1.73,0.44l-9.48,5.47c-0.72,0.42-1.13,0.84-1.23,1.27
	c-0.1,0.43,0.08,1.06,0.53,1.89l-0.43,0.25l-3.7-6.4l0.43-0.24c0.5,0.81,0.95,1.28,1.37,1.41c0.42,0.13,0.98-0.01,1.7-0.42
	l3.88-2.24c0.27-0.15,0.42-0.29,0.46-0.41c0.04-0.12,0-0.29-0.13-0.51l-3.48-6.02c-0.13-0.23-0.27-0.36-0.42-0.4
	c-0.15-0.03-0.35,0.01-0.58,0.15l-3.87,2.23c-0.73,0.42-1.14,0.84-1.24,1.26c-0.1,0.42,0.08,1.05,0.54,1.89l-0.43,0.25L272.8,103.23
	z M274.8,98.75l-0.08,0.58c-1.55,0.09-2.92-0.12-4.12-0.61c-1.19-0.5-2.24-1.31-3.14-2.42c-1.62-2-2.32-4.08-2.1-6.26
	c0.22-2.17,1.31-4.06,3.28-5.65c1.96-1.59,4.08-2.26,6.35-2.02c2.27,0.24,4.21,1.35,5.8,3.31c0.61,0.75,1.12,1.63,1.52,2.63
	c0.41,1,0.65,1.55,0.72,1.65c0.15,0.18,0.33,0.28,0.54,0.29c0.21,0.02,0.41-0.05,0.61-0.21l0.28,0.35l-3.81,3.69l-0.31-0.38
	c0.86-1.29,1.29-2.54,1.3-3.75c0.01-1.21-0.41-2.34-1.26-3.38c-1.18-1.46-2.68-2.2-4.49-2.22c-1.81-0.01-3.6,0.7-5.39,2.14
	c-1.71,1.39-2.75,2.97-3.12,4.74c-0.37,1.78,0,3.36,1.13,4.75c0.78,0.96,1.66,1.66,2.65,2.09C272.16,98.51,273.37,98.73,274.8,98.75
	z M249.45,76.7l0.35-0.35c0.72,0.64,1.28,0.96,1.71,0.97c0.42,0.01,0.93-0.29,1.52-0.92l7.48-8.02c0.58-0.62,0.85-1.14,0.82-1.57
	c-0.04-0.42-0.39-0.98-1.07-1.68l0.33-0.35l10.2,9.51l-2.3,2.78l-0.36-0.34c0.58-0.87,0.84-1.6,0.75-2.18
	c-0.08-0.58-0.55-1.27-1.4-2.06l-3.01-2.81c-0.36-0.34-0.64-0.51-0.83-0.52c-0.19-0.01-0.46,0.17-0.82,0.56l-2.99,3.21
	c-0.23,0.25-0.34,0.43-0.35,0.56c0,0.12,0.13,0.31,0.39,0.55l2.38,2.22c0.93,0.87,1.65,1.32,2.15,1.35c0.5,0.03,1.07-0.26,1.71-0.88
	l0.36,0.34l-3.82,4.1l-0.36-0.34c0.59-0.73,0.86-1.34,0.81-1.84c-0.05-0.5-0.55-1.18-1.48-2.05l-2.39-2.23
	c-0.23-0.21-0.41-0.32-0.54-0.32c-0.13,0-0.31,0.12-0.55,0.37l-3.33,3.57c-0.41,0.44-0.62,0.77-0.62,1.01
	c-0.01,0.24,0.16,0.52,0.49,0.83l2.79,2.6c1.13,1.05,2.09,1.65,2.89,1.8c0.8,0.14,1.82-0.07,3.06-0.64l0.18,0.47l-3.67,2.05
	L249.45,76.7z M239.01,68.77l0.28-0.41c0.84,0.59,1.48,0.85,1.91,0.77c0.43-0.07,0.95-0.54,1.55-1.4l6.68-9.54
	c0.2-0.28,0.28-0.48,0.24-0.6c-0.04-0.11-0.26-0.31-0.65-0.58l-0.33-0.23c-1.29-0.9-2.29-1.33-3.01-1.29
	c-0.72,0.05-1.49,0.55-2.33,1.51l-0.41-0.28l2.51-3.35l12.1,8.47l-2.4,3.43l-0.42-0.3c0.63-1.12,0.86-2.01,0.69-2.67
	c-0.17-0.66-1.02-1.52-2.54-2.58c-0.45-0.31-0.73-0.46-0.86-0.45c-0.12,0.01-0.28,0.15-0.47,0.41l-6.63,9.46
	c-0.67,0.96-0.94,1.64-0.83,2.05c0.12,0.41,0.58,0.91,1.39,1.5l-0.28,0.41L239.01,68.77z M218.04,57.04l0.23-0.44
	c0.91,0.42,1.55,0.58,1.94,0.47c0.39-0.1,0.78-0.55,1.18-1.33l4.96-9.73c0.39-0.76,0.5-1.35,0.34-1.76
	c-0.16-0.42-0.65-0.84-1.49-1.27l0.24-0.46l12.05,6.14l-1.52,3.54l-0.44-0.23c0.33-1.06,0.37-1.89,0.11-2.48
	c-0.26-0.6-0.92-1.16-1.97-1.7l-3.09-1.57c-0.43-0.22-0.77-0.29-1.01-0.22c-0.24,0.07-0.46,0.3-0.66,0.69l-2,3.93
	c-0.17,0.33-0.23,0.55-0.19,0.68c0.04,0.12,0.2,0.26,0.49,0.4l1.93,0.98c1.11,0.56,1.91,0.8,2.42,0.69c0.51-0.1,0.96-0.56,1.37-1.36
	l0.44,0.22l-2.62,5.15l-0.44-0.23c0.4-0.94,0.52-1.63,0.36-2.08c-0.16-0.44-0.82-0.96-1.96-1.54l-1.95-0.99
	c-0.25-0.13-0.45-0.17-0.58-0.13c-0.14,0.04-0.27,0.18-0.39,0.42l-2.05,4.03c-0.39,0.77-0.5,1.36-0.33,1.81
	c0.17,0.44,0.71,0.89,1.61,1.37l-0.21,0.45L218.04,57.04z M202.15,42.83c0.84-2.43,2.24-4.13,4.2-5.09
	c1.96-0.96,4.14-1.03,6.54-0.21c2.41,0.83,4.08,2.23,5.04,4.19c0.95,1.96,1.01,4.16,0.17,6.59c-0.84,2.44-2.24,4.14-4.2,5.11
	c-1.97,0.97-4.15,1.04-6.56,0.21c-2.4-0.83-4.07-2.23-5.02-4.2C201.37,47.48,201.31,45.27,202.15,42.83z M204.8,43.75
	c-0.76,2.22-0.89,4.14-0.38,5.77c0.51,1.63,1.58,2.72,3.2,3.28c1.63,0.56,3.15,0.36,4.55-0.61c1.41-0.97,2.49-2.56,3.26-4.78
	c0.76-2.21,0.88-4.12,0.37-5.74c-0.51-1.63-1.59-2.72-3.22-3.28c-1.62-0.56-3.14-0.36-4.54,0.61
	C206.65,39.96,205.56,41.54,204.8,43.75z M180.29,47.83l0.06-0.49l0.11,0.01c0.83,0.1,1.43,0.02,1.8-0.24
	c0.37-0.26,0.6-0.77,0.7-1.51l0.55-4.47l-4.4-8.05c-0.27-0.47-0.59-0.84-0.96-1.09c-0.37-0.26-0.83-0.43-1.39-0.52l0.06-0.49
	l7.48,0.92l-0.06,0.48c-0.71-0.02-1.22,0-1.51,0.08c-0.29,0.07-0.45,0.22-0.48,0.42c-0.03,0.23,0.07,0.57,0.3,1.02
	c0.02,0.03,0.03,0.05,0.04,0.06l3.18,6l3.9-4.63c0.39-0.45,0.63-0.76,0.75-0.93c0.11-0.18,0.18-0.32,0.19-0.45
	c0.03-0.22-0.08-0.4-0.31-0.55c-0.24-0.14-0.68-0.29-1.34-0.43l0.06-0.49l5.07,0.62l-0.06,0.49c-0.49-0.03-0.93,0.06-1.33,0.27
	c-0.39,0.21-0.89,0.66-1.48,1.35l-5.11,5.97l-0.6,4.91c-0.08,0.68,0.02,1.18,0.33,1.48c0.3,0.31,0.92,0.52,1.85,0.66l-0.06,0.49
	L180.29,47.83z M161.88,47.59v-0.5c1.03,0,1.7-0.15,2.01-0.46c0.31-0.31,0.47-0.99,0.47-2.04V32.96c0-0.35-0.05-0.55-0.15-0.62
	c-0.1-0.07-0.39-0.1-0.86-0.1h-0.4c-1.58,0-2.64,0.22-3.2,0.67c-0.56,0.45-0.91,1.31-1.04,2.57h-0.5l0.14-4.19h14.77v4.19h-0.52
	c-0.13-1.28-0.45-2.14-0.97-2.59c-0.51-0.44-1.7-0.66-3.56-0.66c-0.55,0-0.86,0.04-0.96,0.12c-0.1,0.08-0.15,0.28-0.15,0.6v11.55
	c0,1.17,0.17,1.88,0.49,2.15c0.33,0.27,0.99,0.41,2,0.44l0.01,0.5H161.88z M148.44,49.38l-0.06-0.49c0.94-0.14,1.55-0.37,1.84-0.7
	c0.28-0.32,0.37-0.91,0.27-1.77l-1.33-10.86c-0.1-0.83-0.33-1.38-0.7-1.63c-0.36-0.26-1.01-0.34-1.94-0.25l-0.06-0.49l7.36-0.9
	l0.05,0.49c-0.95,0.16-1.57,0.4-1.85,0.72c-0.28,0.33-0.36,0.91-0.26,1.74l1.33,10.86c0.1,0.84,0.33,1.38,0.69,1.64
	c0.36,0.26,1.01,0.34,1.95,0.24l0.07,0.49L148.44,49.38z M135.88,52.47l-2.06-4.92l0.48-0.11c0.87,1.24,1.81,2.15,2.84,2.71
	c1.02,0.57,2.01,0.74,2.97,0.52c0.84-0.19,1.49-0.63,1.94-1.3c0.45-0.67,0.58-1.41,0.39-2.21c-0.14-0.59-0.45-1.1-0.95-1.53
	c-0.5-0.42-1.2-0.77-2.11-1.05l-2.83-0.93c-1.21-0.38-2.13-0.85-2.75-1.4c-0.62-0.55-1.03-1.26-1.23-2.12
	c-0.28-1.21-0.08-2.3,0.6-3.26c0.68-0.96,1.71-1.6,3.1-1.92c0.64-0.15,1.35-0.19,2.13-0.11c0.78,0.07,1.23,0.09,1.37,0.06
	c0.17-0.04,0.29-0.13,0.37-0.27c0.07-0.15,0.1-0.34,0.07-0.59l0.41-0.1l1.64,4.68l-0.48,0.11c-0.75-1.2-1.57-2.05-2.46-2.56
	c-0.88-0.51-1.79-0.66-2.71-0.45c-0.79,0.18-1.37,0.55-1.77,1.11c-0.39,0.56-0.51,1.19-0.35,1.89c0.13,0.55,0.41,1,0.86,1.37
	c0.45,0.37,1.14,0.71,2.09,1.02l3.13,0.99c1.29,0.42,2.23,0.91,2.84,1.46c0.6,0.55,1.01,1.29,1.22,2.2c0.32,1.37,0.11,2.57-0.63,3.6
	c-0.73,1.03-1.88,1.73-3.43,2.09c-0.72,0.17-1.5,0.24-2.31,0.2c-0.82-0.03-1.26-0.04-1.34-0.02c-0.21,0.05-0.38,0.14-0.48,0.26
	c-0.11,0.12-0.15,0.29-0.14,0.49L135.88,52.47z M116.98,59.53l-0.19-0.46l0.28-0.11c0.76-0.31,1.23-0.67,1.39-1.1
	c0.17-0.42,0.09-1.04-0.24-1.86l-4.1-10.15c-0.3-0.73-0.65-1.16-1.06-1.3c-0.41-0.13-1.08-0.02-2,0.33l-0.18-0.46l7.67-3.1
	c1.7-0.69,3.13-0.88,4.3-0.57c1.17,0.31,2.01,1.1,2.52,2.36c0.4,0.99,0.41,1.94,0.05,2.85c-0.36,0.91-1.1,1.76-2.21,2.53
	c2.99,1.73,5.17,2.91,6.54,3.53c1.37,0.62,2.28,0.86,2.75,0.72l0.18,0.46l-3.43,1.38c-1.34-0.63-2.72-1.33-4.12-2.09
	c-1.41-0.77-2.84-1.6-4.32-2.5l-1.38,0.56c-0.21,0.09-0.35,0.19-0.4,0.31c-0.06,0.12-0.05,0.28,0.03,0.47l1.51,3.73
	c0.33,0.82,0.71,1.32,1.14,1.5c0.43,0.18,1.06,0.1,1.89-0.23l0.19-0.08l0.18,0.46L116.98,59.53z M118.28,49.42
	c0.08,0.2,0.19,0.33,0.32,0.38c0.12,0.05,0.29,0.03,0.5-0.05c1.82-0.74,3.03-1.54,3.63-2.42c0.6-0.88,0.65-1.92,0.17-3.12
	c-0.45-1.1-1.11-1.77-2-2.01c-0.89-0.24-2.08-0.05-3.56,0.54c-0.67,0.27-1.06,0.51-1.16,0.72c-0.11,0.21-0.06,0.57,0.14,1.08
	L118.28,49.42z M101.4,68.32l-0.23-0.44c0.83-0.49,1.31-0.92,1.45-1.33c0.14-0.4,0.01-0.97-0.41-1.73l-5.31-9.59
	c-0.41-0.74-0.82-1.16-1.24-1.26c-0.41-0.1-1.06,0.07-1.93,0.5l-0.24-0.42l12.2-6.76l1.94,3.04l-0.43,0.24
	c-0.65-0.82-1.26-1.29-1.84-1.38c-0.58-0.1-1.37,0.13-2.39,0.69l-3.6,2c-0.44,0.24-0.69,0.45-0.76,0.63
	c-0.07,0.18,0.02,0.49,0.28,0.95L101,57.3c0.16,0.3,0.3,0.46,0.42,0.5c0.12,0.04,0.33-0.03,0.64-0.2l2.84-1.58
	c1.11-0.62,1.76-1.16,1.95-1.63c0.18-0.47,0.08-1.1-0.31-1.9l0.43-0.24l2.72,4.9l-0.43,0.24c-0.51-0.79-1.01-1.23-1.5-1.33
	c-0.49-0.1-1.29,0.16-2.4,0.78l-2.86,1.59c-0.27,0.15-0.43,0.29-0.47,0.41c-0.04,0.12,0.02,0.33,0.19,0.64l2.36,4.27
	c0.29,0.52,0.55,0.82,0.77,0.91c0.22,0.08,0.54,0.01,0.94-0.21l3.33-1.85c1.35-0.75,2.22-1.48,2.6-2.2c0.39-0.72,0.5-1.75,0.34-3.1
	l0.5-0.02l0.82,4.12L101.4,68.32z M93.13,75.47L80.5,68.38c-1.09-0.61-1.91-0.96-2.47-1.03c-0.56-0.07-1.08,0.06-1.54,0.4l-0.3-0.39
	l5.52-4.16l0.29,0.4c-0.6,0.52-0.97,0.91-1.09,1.17c-0.12,0.26-0.09,0.51,0.1,0.76c0.19,0.26,1.06,0.84,2.61,1.73
	c1.55,0.9,4.17,2.34,7.88,4.33l-2.31-10.23c-0.08-0.37-0.18-0.68-0.26-0.93c-0.09-0.25-0.18-0.44-0.27-0.56
	c-0.21-0.28-0.47-0.4-0.77-0.37c-0.3,0.04-0.74,0.26-1.34,0.65l-0.31-0.39l3.93-2.97l0.3,0.4c-0.34,0.29-0.53,0.66-0.59,1.09
	c-0.06,0.44,0.04,1.17,0.28,2.21l3.37,14.66L93.13,75.47z M79.64,88.03l-0.36-0.34c0.64-0.7,0.97-1.26,0.99-1.7
	c0.02-0.43-0.28-0.94-0.9-1.54l-7.87-7.6c-0.6-0.58-1.13-0.86-1.57-0.83c-0.44,0.03-1,0.37-1.67,1.03l-0.36-0.34l5.15-5.34
	l0.35,0.35c-0.64,0.72-0.97,1.3-0.98,1.73c-0.01,0.43,0.29,0.93,0.89,1.51l7.87,7.6c0.61,0.59,1.13,0.87,1.57,0.84
	c0.44-0.03,1-0.38,1.67-1.04l0.36,0.33L79.64,88.03z M67.25,98.62c0.7,0.57,1.25,0.82,1.64,0.75c0.39-0.07,0.92-0.46,1.59-1.18
	l0.38,0.31l-3.7,4.56l-0.38-0.31c0.56-0.8,0.83-1.4,0.82-1.8c-0.01-0.4-0.37-0.88-1.08-1.45l-8.86-7.18
	c-0.62-0.1-1.15-0.08-1.59,0.04c-0.44,0.13-0.83,0.38-1.2,0.75l-0.38-0.31l2.64-3.27l15.08-0.21l-6.89-5.58
	c-0.7-0.57-1.25-0.82-1.64-0.76c-0.39,0.07-0.91,0.46-1.57,1.17l-0.39-0.31l3.68-4.54l0.39,0.31c-0.56,0.79-0.83,1.38-0.82,1.78
	c0.01,0.39,0.37,0.88,1.08,1.45l10.55,8.54l-0.31,0.38l-17.15,0.28L67.25,98.62z M43.97,113.94l-0.44-0.23l3.41-6.41l0.43,0.23
	c-0.4,0.82-0.53,1.44-0.39,1.85c0.14,0.41,0.66,0.86,1.57,1.34l6.18,3.28c1.69,0.9,3.12,1.22,4.3,0.98c1.18-0.25,2.14-1.08,2.89-2.5
	c0.77-1.44,0.93-2.79,0.49-4.05c-0.44-1.25-1.44-2.3-3.01-3.13l-6.18-3.28c-0.87-0.47-1.55-0.63-2.01-0.5
	c-0.47,0.13-0.93,0.6-1.38,1.41l-0.44-0.22l2.7-5.08l0.43,0.23c-0.35,0.73-0.44,1.32-0.27,1.77c0.18,0.45,0.69,0.9,1.55,1.36
	l5.89,3.13c2.03,1.08,3.3,2.41,3.8,3.98c0.5,1.57,0.22,3.35-0.83,5.34c-0.54,1.02-1.16,1.86-1.85,2.53
	c-0.69,0.66-1.43,1.12-2.2,1.36c-0.71,0.22-1.46,0.24-2.25,0.09c-0.79-0.16-1.75-0.53-2.85-1.12l-5.41-2.87
	c-1.29-0.68-2.18-0.98-2.69-0.88C44.9,112.63,44.42,113.1,43.97,113.94z M53.49,129.13c0.33,1.19,0.49,2.36,0.49,3.53
	c0,1.16-0.18,2.32-0.53,3.46c-0.78,2.55-2.14,4.39-4.08,5.52c-1.94,1.12-4.1,1.32-6.48,0.59c-2.46-0.75-4.22-2.16-5.28-4.23
	c-1.06-2.07-1.21-4.37-0.43-6.91c0.3-0.99,0.77-1.93,1.39-2.81c0.62-0.89,0.95-1.37,0.98-1.46c0.06-0.18,0.03-0.36-0.08-0.54
	c-0.11-0.18-0.29-0.34-0.54-0.49l0.11-0.39l4.88,1.23l-0.15,0.47c-1.61,0.12-2.85,0.49-3.72,1.11c-0.87,0.63-1.5,1.6-1.91,2.93
	c-0.56,1.85-0.36,3.53,0.63,5.06c0.98,1.52,2.57,2.62,4.75,3.29c2.21,0.68,4.15,0.65,5.82-0.08c1.67-0.74,2.79-2.04,3.37-3.93
	c0.21-0.7,0.31-1.39,0.28-2.08c-0.02-0.7-0.16-1.31-0.41-1.85l-4.21-1.29c-0.9-0.28-1.49-0.32-1.77-0.12
	c-0.28,0.19-0.6,0.81-0.97,1.84l-0.5-0.15l2.04-6.67l0.5,0.15c-0.21,0.76-0.24,1.3-0.1,1.61c0.14,0.31,0.61,0.59,1.4,0.83
	L53.49,129.13z M45.65,160.62c0.89,0.13,1.49,0.06,1.79-0.2c0.3-0.26,0.55-0.87,0.76-1.83l0.49,0.07l-0.82,5.81l-0.49-0.07
	c0.07-0.97-0.01-1.63-0.22-1.96c-0.22-0.33-0.77-0.56-1.67-0.69l-11.29-1.59c-0.58,0.23-1.03,0.52-1.34,0.85
	c-0.31,0.33-0.52,0.75-0.64,1.25l-0.49-0.07l0.58-4.16l12.82-7.95l-8.77-1.23c-0.89-0.13-1.49-0.06-1.79,0.2
	c-0.3,0.26-0.55,0.86-0.74,1.81l-0.49-0.07l0.81-5.79l0.49,0.07c-0.07,0.96,0,1.61,0.21,1.95c0.21,0.33,0.77,0.56,1.67,0.69
	l13.44,1.89l-0.07,0.49l-14.55,9.07L45.65,160.62z M48.26,174.29h-0.5c-0.02-0.95-0.18-1.59-0.47-1.91
	c-0.29-0.32-0.86-0.48-1.72-0.48H34.64c-0.84,0-1.41,0.17-1.7,0.5c-0.3,0.33-0.46,0.96-0.48,1.9h-0.5v-7.42l0.5,0.01
	c0.04,0.97,0.2,1.61,0.49,1.92c0.29,0.31,0.86,0.47,1.69,0.47h10.94c0.84,0,1.41-0.16,1.71-0.49c0.3-0.33,0.46-0.96,0.48-1.91
	l0.5-0.01V174.29z M32.28,177.98l0.48-0.03c0.09,0.92,0.3,1.54,0.64,1.84c0.34,0.3,0.97,0.42,1.91,0.35l8.71-0.61
	c1.64-0.12,2.92,0.16,3.84,0.83c0.92,0.67,1.42,1.69,1.52,3.08c0.06,0.86-0.1,1.57-0.47,2.16c-0.38,0.58-0.88,0.89-1.52,0.94
	c-0.29,0.02-0.54-0.06-0.74-0.26c-0.2-0.19-0.31-0.44-0.33-0.76c-0.02-0.31,0.05-0.58,0.2-0.82c0.16-0.24,0.41-0.45,0.75-0.62
	c0.04-0.02,0.09-0.04,0.16-0.07c0.67-0.34,0.99-0.7,0.96-1.1c-0.03-0.36-0.16-0.62-0.41-0.78c-0.25-0.16-0.61-0.23-1.08-0.2
	l-11.42,0.8c-0.96,0.07-1.59,0.28-1.87,0.63c-0.29,0.35-0.4,1.02-0.33,1.98l-0.49,0.03L32.28,177.98z M50.97,195.75l-0.49,0.08
	c-0.17-0.93-0.42-1.54-0.76-1.81c-0.33-0.27-0.93-0.34-1.77-0.21l-10.8,1.71c-0.83,0.13-1.36,0.38-1.61,0.76
	c-0.24,0.37-0.3,1.02-0.18,1.95l-0.49,0.08l-1.16-7.33l0.49-0.07c0.19,0.95,0.45,1.55,0.79,1.82c0.34,0.26,0.92,0.33,1.75,0.2
	l10.8-1.71c0.83-0.13,1.37-0.38,1.61-0.75c0.24-0.37,0.3-1.02,0.18-1.96l0.49-0.09L50.97,195.75z M55.97,212.99l-0.48,0.12
	c-0.29-0.91-0.61-1.49-0.96-1.71c-0.36-0.23-0.95-0.23-1.77,0.01l-10.54,3.02c-0.81,0.23-1.31,0.54-1.5,0.92
	c-0.19,0.38-0.17,1.05,0.05,1.99l-0.46,0.13l-3.84-13.4l3.4-1.21l0.14,0.48c-0.95,0.45-1.54,0.94-1.76,1.48
	c-0.23,0.54-0.18,1.37,0.14,2.49l1.14,3.96c0.14,0.48,0.29,0.77,0.44,0.88c0.16,0.11,0.49,0.09,0.99-0.06l4.22-1.21
	c0.32-0.09,0.52-0.19,0.58-0.3c0.06-0.11,0.05-0.33-0.05-0.67l-0.89-3.12c-0.35-1.22-0.74-1.98-1.15-2.26
	c-0.41-0.28-1.05-0.33-1.92-0.13l-0.14-0.48l5.38-1.54l0.14,0.48c-0.88,0.32-1.43,0.7-1.64,1.16c-0.21,0.45-0.14,1.29,0.21,2.52
	l0.9,3.14c0.09,0.3,0.19,0.49,0.3,0.55c0.11,0.07,0.33,0.06,0.66-0.04l4.69-1.34c0.57-0.16,0.93-0.35,1.06-0.55
	c0.13-0.2,0.13-0.52,0.01-0.97l-1.05-3.66c-0.43-1.48-0.94-2.49-1.56-3.03c-0.62-0.54-1.6-0.88-2.95-1.03l0.09-0.49l4.2,0.13
	L55.97,212.99z M63.11,228.76l-0.46,0.19c-0.41-0.87-0.8-1.39-1.2-1.56c-0.4-0.17-0.98-0.09-1.75,0.25l-10.02,4.46
	c-0.78,0.35-1.23,0.73-1.36,1.13c-0.13,0.41-0.02,1.06,0.33,1.96l-0.44,0.2l-3.18-7.15c-0.78-1.75-1.07-3.25-0.86-4.5
	c0.21-1.25,0.88-2.13,2.02-2.64c0.79-0.35,1.58-0.4,2.4-0.15c0.81,0.25,1.57,0.79,2.28,1.61c-0.3-1.3-0.27-2.4,0.07-3.29
	c0.34-0.89,1-1.55,1.97-1.98c1.45-0.65,2.76-0.59,3.94,0.18c1.17,0.76,2.26,2.27,3.26,4.51L63.11,228.76z M59.15,225.06
	c0.42-0.19,0.66-0.41,0.72-0.66c0.06-0.26-0.08-0.78-0.43-1.56l-0.21-0.47c-0.58-1.3-1.31-2.17-2.17-2.61
	c-0.87-0.43-1.83-0.41-2.9,0.07c-1.09,0.48-1.74,1.22-1.95,2.2c-0.21,0.98,0.01,2.22,0.68,3.71l0.37,0.84
	c0.19,0.42,0.35,0.66,0.48,0.72c0.13,0.06,0.37,0.01,0.71-0.14L59.15,225.06z M52.05,228.22c0.43-0.19,0.67-0.35,0.72-0.46
	c0.05-0.12,0-0.36-0.17-0.74l-0.15-0.35c-0.72-1.63-1.48-2.69-2.27-3.18c-0.79-0.49-1.72-0.51-2.8-0.03
	c-1.04,0.46-1.65,1.11-1.84,1.96c-0.19,0.85,0.02,1.97,0.65,3.37c0.36,0.8,0.64,1.26,0.85,1.36c0.21,0.1,0.57,0.04,1.07-0.18
	L52.05,228.22z M183.59,281.9v-4.39c0-0.96,0.07-1.68,0.2-2.16c0.14-0.48,0.36-0.94,0.67-1.36c0.49-0.64,1.09-1.14,1.8-1.49
	c0.71-0.34,1.49-0.52,2.34-0.52c1.55,0,2.78,0.48,3.67,1.45c0.9,0.96,1.35,2.3,1.35,4v4.54c0,0.8-0.07,1.46-0.19,1.99
	c-0.13,0.53-0.33,0.99-0.62,1.39c-0.47,0.66-1.07,1.17-1.8,1.53c-0.73,0.36-1.53,0.54-2.4,0.54c-0.85,0-1.62-0.17-2.33-0.51
	c-0.71-0.34-1.31-0.84-1.82-1.49c-0.3-0.38-0.51-0.84-0.65-1.39C183.66,283.47,183.59,282.77,183.59,281.9z M185.03,282.22
	c0,1.23,0.32,2.19,0.95,2.87c0.63,0.69,1.5,1.03,2.62,1.03c1.11,0,1.99-0.34,2.62-1.02c0.63-0.68,0.94-1.63,0.94-2.84v-5.11
	c0-1.21-0.32-2.15-0.95-2.84c-0.64-0.68-1.5-1.02-2.61-1.02c-1.12,0-1.99,0.34-2.62,1.03c-0.63,0.69-0.95,1.65-0.95,2.89V282.22z
	 M176.08,272.29h1.81l-3.46,5.35c0.32-0.07,0.61-0.13,0.88-0.17c0.26-0.04,0.5-0.05,0.72-0.05c1.34,0,2.46,0.47,3.34,1.4
	c0.88,0.94,1.32,2.12,1.32,3.53c0,1.45-0.48,2.66-1.43,3.61c-0.96,0.96-2.17,1.43-3.63,1.43c-1.44,0-2.63-0.47-3.57-1.41
	c-0.95-0.94-1.42-2.1-1.42-3.47c0-1.18,0.61-2.71,1.83-4.6c0.12-0.18,0.21-0.32,0.28-0.42L176.08,272.29z M175.73,278.72
	c-1.01,0-1.87,0.35-2.56,1.06c-0.69,0.71-1.03,1.57-1.03,2.61c0,1.05,0.35,1.93,1.06,2.65c0.7,0.72,1.56,1.08,2.55,1.08
	c0.97,0,1.78-0.35,2.44-1.05c0.66-0.7,0.98-1.59,0.98-2.67c0-1.07-0.32-1.96-0.97-2.65C177.55,279.06,176.72,278.72,175.73,278.72z
	 M162.27,287.12h-1.82l3.46-5.37c-0.32,0.07-0.61,0.13-0.88,0.17c-0.26,0.04-0.5,0.06-0.72,0.06c-1.34,0-2.46-0.47-3.33-1.4
	c-0.88-0.94-1.32-2.12-1.32-3.53c0-1.46,0.48-2.67,1.42-3.62c0.95-0.96,2.16-1.43,3.62-1.43c1.44,0,2.63,0.47,3.59,1.41
	c0.96,0.94,1.43,2.09,1.43,3.46c0,1.19-0.61,2.72-1.84,4.6c-0.11,0.18-0.2,0.32-0.26,0.42L162.27,287.12z M162.62,280.67
	c1.01,0,1.87-0.35,2.56-1.06c0.69-0.71,1.03-1.57,1.03-2.61c0-1.04-0.35-1.92-1.05-2.64c-0.7-0.72-1.55-1.07-2.56-1.07
	c-0.97,0-1.78,0.35-2.44,1.04c-0.66,0.69-0.98,1.58-0.98,2.65c0,1.07,0.32,1.96,0.97,2.65C160.8,280.33,161.62,280.67,162.62,280.67
	z M150.73,287.12h-1.55v-13.55h-2.58v-1.27h4.13V287.12z M278.13,61.87C250.56,34.3,212.47,17.25,170.4,17.25
	c-42.07,0-80.16,17.05-107.73,44.62C35.1,89.44,18.05,127.52,18.05,169.6c0,42.07,17.05,80.16,44.62,107.73
	c27.57,27.57,65.66,44.62,107.73,44.62c42.07,0,80.16-17.05,107.73-44.62c27.57-27.57,44.62-65.66,44.62-107.73
	C322.75,127.52,305.7,89.44,278.13,61.87z M170.4,10.91c43.82,0,83.49,17.76,112.21,46.48c28.72,28.72,46.48,68.39,46.48,112.21
	c0,43.82-17.76,83.49-46.48,112.21c-28.72,28.72-68.39,46.48-112.21,46.48c-43.82,0-83.49-17.76-112.21-46.48
	c-28.72-28.72-46.48-68.39-46.48-112.21c0-43.82,17.76-83.49,46.48-112.21C86.91,28.67,126.58,10.91,170.4,10.91z M105.79,114.99
	l109.31-0.22c16.75,0.43,24.42,14,22.63,26.19c-1.25,8.52-8.73,15.34-11.82,16.06c8.46,2.46,14.92,9.47,16.18,17.82
	c2.9,19.26-14.61,26.29-20.71,26.09l-115.94,0.01l0.25-11.95l84.72,0.07c17.16-1.64,14.01-21.52,0-21.95l-84.55,0.21l-0.07-11.3
	l83.71,0.3c10.41-1.03,16.13-13.55,12.73-21.43l-65.85,0.05v-4.5l62.99,0.14c-2.87-3.37-9.2-5.19-14.71-5.07l-78.98,0.05
	L105.79,114.99z M136.54,181.12h36.37l0.1-5.71h-36.37L136.54,181.12z M136.54,148.08h36.37l0.1-5.71h-36.37L136.54,148.08z
	 M225.57,235.46c-0.35-0.96-1.88-1.19-2.81-0.59c-1.42,0.91-2.08,2.66-3.62,3.51c-0.41,0.23-0.81,0.97-1.46,0.59
	c-0.54-0.44-0.11-1.52-0.11-2.27c0.01-1.84,0.36-3.46,0-5.29c-0.3-1.52-4.44-4.12-6-4.37c-0.14,0.07-0.29,0.14-0.43,0.22
	c-1.63,2.8,0.34,3.87,1.19,5.83c0.53,1.24,1.31,8.22,0.7,9.45c-0.43,0.86-2.79,1.95-3.67,2.54c-2.09,1.39-4.3,2.86-6.7,3.89
	c-0.99,0.4-1.98,0.79-2.97,1.19c-0.74,0.19-1.25-0.08-1.78,0.27c-0.7,3.36,0.83,4.7,4.05,3.62c2.02-0.68,3.64-2.31,5.02-3.67
	c1.19-1.17,3.48-2.85,4.97-3.67c0.13,0.02,0.25,0.04,0.38,0.05c0.6,0.99-0.19,2.53-0.65,3.46c-1.32,2.71-3.41,4.84-6.37,5.83
	c-1.45,0.49-3.64-0.09-4.27,1.3c0.05,0.13,0.11,0.25,0.16,0.38c1.28,0.31,3.22,0.15,4.54-0.05c0.38,0.04,0.76,0.07,1.13,0.11
	c4.01-0.89,5.88-2.22,7.78-5.24c0.42-0.66,1.1-1.46,1.3-2.27c0.47-1.92,0.64-3.68,1.19-5.4c0.19-0.6-0.05-1.4,0.27-1.84
	c0.61-0.82,1.74-1.41,2.7-1.89c0.52-0.43,1.04-0.86,1.57-1.3c0.77-0.55,1.61-0.96,2.32-1.51
	C224.65,237.82,226.08,236.84,225.57,235.46z M183.87,242.64c-0.23-0.1-0.28-0.09-0.38-0.32c-0.47-1.67,2.27-3.37,3.4-3.73
	c0.65-0.2,0.83,0.2,1.57-0.27c0.36,0.01,0.41,0.03,0.49,0.32C189.13,239.41,184.72,242.27,183.87,242.64z M184.73,235.13
	c-0.07,0.11-0.06,0.09-0.16,0.16c-0.1-0.07-0.09-0.05-0.16-0.16c-0.04-0.2-0.07-0.4-0.11-0.59l0.16-0.22
	c0.11,0.02,0.22,0.04,0.32,0.05C184.85,234.64,184.86,234.94,184.73,235.13z M184.41,232.11c0.23-0.48,0.86-0.69,1.3-0.97h0.16
	c0.39,0.69-0.34,1.4-0.81,1.73h-0.54C184.36,232.63,184.26,232.4,184.41,232.11z M184.84,259.87c-0.4,0.42-0.97,0.52-1.84,0.49
	c-0.13-0.16-0.25-0.32-0.38-0.49c0.13-0.92,0.87-1.21,1.46-1.67h0.38c0.04,0.02,0.07,0.04,0.11,0.05
	C184.81,258.65,184.86,259.17,184.84,259.87z M191.22,226.65h0.16c0.43,0.99-1.61,2.4-2.11,3.03h-0.32
	C187.86,227.89,190.35,227.27,191.22,226.65z M201.15,230.43c-0.7-1.25-2.07-1.16-3.4-0.65c-0.87,0.33-1.38,0.96-2.05,1.4
	c-1.45,0.95-3.02,1.73-4.48,2.59c-0.56,0.33-2.71,1.77-3.03,1.19c-0.28-0.71,0.13-2.42,0.54-2.7c0.56-0.16,1.12-0.32,1.67-0.49
	c2.14-0.89,5.66-3.23,6.48-5.4c-0.37-1.04-2.24-2.5-3.78-2.22c-1.24,0.23-2.23,1.12-3.13,1.73c-1.12-0.16-0.02-2.88-2.48-2.92
	c-0.94,0.95-1,2.07-0.86,3.67c0.04,0.31,0.07,0.61,0.11,0.92c-0.2,0.88-1.42,1.83-2,2.43c-0.13-0.02-0.25-0.04-0.38-0.05
	c-0.74-1.7-0.72-4.01-3.19-3.19c-0.36,0.64,0.22,1.17,0,2.05c-0.2,0.52-0.4,1.04-0.59,1.57c-0.14,0.58,0.06,1.26-0.22,1.67
	c-0.93,1.39-3.61,1.28-5.02,2.21c-0.38,1.46,2.05,3.02,3.67,2.75c0.76-0.12,1-0.55,1.67-0.7c0.63,0.45,1.24,1.49,2.48,1.24
	c0.54-0.11,0.76-0.44,1.41-0.49h0.05c0.11,0.17,0.21,0.29,0.11,0.54c-0.42,0.73-4,2.2-4.97,2.75c-2.17,1.25-4.54,2.44-6.64,3.78
	c-1.31,0.83-2.5,2.04-3.84,2.86c-1.11,0.68-5.03,2.32-4.59,4.05c0.09,0.14,0.18,0.29,0.27,0.43c0.85,0.2,1.48-0.01,2.27-0.16
	c0.99-0.16,1.98-0.32,2.97-0.49c2.05-0.8,3.16-2.66,4.81-3.84c0.82-0.59,1.59-1.05,2.43-1.62c0.83-0.56,1.55-1.72,2.81-1.78
	l0.16,0.16c-0.4,1.4-1.08,2.13,0,3.51c1.75,0.37,2-1.57,2.97-2.32c0.66-0.52,1.28-0.92,2.11-1.3c0.33-0.15,0.55-0.38,1.03-0.27
	c0.09,0.06,0.18,0.11,0.27,0.16c-0.12,0.45-0.7,0.44-1.08,0.59c-0.28,1.57-0.71,2.26-1.94,2.81c-0.59,0.26-1.02,0.26-1.3,0.81
	l-0.05,0.33c0.92,0.97,1.27,0.3,2.21,0.86c0.17,0.1,0.18,0.15,0.27,0.32c-0.04,0.16-0.07,0.32-0.11,0.49
	c-0.24,0.33-1.35,0.38-1.73,0.54c-0.55,1.55,1.18,1.52,1.67,2.48c0.02,0.13,0.04,0.25,0.05,0.38c-0.32,0.32-1.46,0.74-1.62,1.13
	c-0.41,1.05,2.04,1.89,0.86,3.19c-0.33,0.37-4.37,1.69-5.13,1.84c-0.53,0.1-0.95-0.28-1.4,0c-2.16,1.34,1.47,4.04,2.76,4.16
	c0.88-0.83,0.52-2.23,1.57-2.81c1.09,0.1,2.62,0.98,3.4,1.57c0.29,0.32,0.58,0.65,0.86,0.97c2.53,0.5,1.03-1.88,1.62-3.08
	c0.35-0.73,3.94-2.23,4.97-2.48c1.08-1.8-1.18-3.53-2.32-3.94c-1.32,0.65-0.82,3.35-2.21,4.05c-0.13,0.02-0.25,0.04-0.38,0.05
	l-0.16-0.16c-0.33-2.42,0.52-4.54,1.24-6.27c0.37-0.88,1.43-2.19,1.24-3.46c-0.11-0.54-0.22-1.08-0.32-1.62
	c-0.23-0.33-0.75-0.26-1.08-0.49c-0.31-0.52-0.61-1.04-0.92-1.57v-0.05c0.3-0.05,0.39,0.08,0.7,0.16c0.11-0.09,0.22-0.18,0.32-0.27
	c0.12-0.75-0.33-1.33,0.05-1.95c0.19-0.3,0.53-0.39,0.81-0.59c1.21-0.89,3.42-2.18,4.11-3.51c-0.05-1.09-1.85-2.36-3.24-1.67
	c-0.43,0.21-0.53,0.55-1.13,0.76h-0.16l0.05-0.27c1.23-0.77,2.61-1.9,4.11-2.32c0.38,0.05,0.76,0.11,1.13,0.16
	c0.7-0.32,1.41-0.65,2.11-0.97c1.13-0.35,1.65,0.13,2.7-0.54C199.97,232.77,201.92,231.8,201.15,230.43z M235.67,248.1
	c-0.32,0.22-0.65,0.43-0.97,0.65c-0.09,0.45-0.18,0.9-0.27,1.35c-0.44,1.01-1.76,2.54-1.35,3.89c0.3,0.66,1.91,1.91,2.92,1.62
	C237.88,254.8,238.98,248.03,235.67,248.1z M252.53,236.21c-0.18-0.11-0.36-0.22-0.54-0.32c-0.27-1.01,0.1-1.85,0.76-2.27h0.27
	C253.61,234.49,253.37,235.9,252.53,236.21z M259.39,235.73c-0.96,0.52-0.82,1.88-2.38,1.94c-0.03-0.02-0.07-0.04-0.11-0.05
	c-0.32-1.47,1.23-2.74,1.89-3.67c0.22-0.41,0.43-0.83,0.65-1.24c0.2-0.16,0.39-0.32,0.59-0.49c0.05-0.23,0.11-0.47,0.16-0.7
	c0.61-0.97,1.77-2,2.11-3.19c0.29-1.04-0.17-1.72-0.33-2.48c-1.01-0.6-2.38-0.33-3.62-0.11c-0.2,0.49-0.4,0.97-0.59,1.46
	c0.22,0.36,0.43,0.72,0.65,1.08c0.2,0.78-0.45,1.38-0.65,1.84c-0.75,1.71-1.49,3.31-2.43,4.75c-0.06,0.04-0.11,0.07-0.16,0.11
	c-0.25-0.81-0.09-1.67,0.05-2.48c-0.31-0.6-1.55-0.79-1.62-1.14c0.07-0.23,0.14-0.47,0.22-0.7c0.33-1.41-0.24-2.17-1.46-2.43
	c-0.12-0.19-0.16-0.25-0.16-0.59c1.43-1.39,1.82-2.99,0.11-4.38c-0.61-0.49-1.11-0.95-2.27-0.92c-0.29,0.18-0.59,0.22-0.76,0.54
	c-0.33,0.9,0.68,1.25,0.49,2.05c-0.1,0.4-1.18,2.66-1.46,3.02c-0.6,0.79-2.44,0.56-3.19,1.51c-0.02,0.09-0.04,0.18-0.06,0.27
	c0.39,0.55,1.31,0.5,1.62,1.08v0.16c-0.3,0.77-1.1,1.23-1.57,1.84v0.54c0.02,0.05,0.04,0.11,0.05,0.16
	c0.16,0.02,0.32,0.04,0.49,0.05c0.56-0.34,1.12-0.68,1.67-1.03c0.49-0.14,0.97-0.29,1.46-0.43c0.37-0.26,0.29-0.64,0.86-0.76h0.06
	c0.37,0.83-0.67,2.52-1.08,3.08c-0.79,0.15-1.8-0.01-2.43,0.27c-0.11,0.42-0.25,0.85-0.16,1.3c0.45,0.25,1.01,0.33,1.24,0.81
	c0.37,1.25-1.78,3.21-1.95,4.37c0.07,0.04,0.14,0.07,0.22,0.11c1.06,0.41,3.86-2.19,4.32-2.81c1.7,0.03,1.91,0.09,2.92-0.65h0.27
	c0.35,0.32,0.9,0.83,0.7,1.51c-0.41,0.87-1.7,1.05-2.59,1.46c-1.54,0.71-6.13,4.01-8.05,3.51c-0.23-0.45-0.1-1.3-0.27-1.84
	c-0.57-1.83-2.16-4.79-4.37-4.81c-0.74,0.75,0.29,1.62,0.49,2.43c0.76,3.2-0.23,3.63,3.08,4.64c0.12,0.25,0.08,0.38,0,0.65
	c-0.31,0.2-0.87,0.34-1.08,0.65c-0.02,0.11-0.04,0.22-0.06,0.32c0.48,0.46,3.74,0.91,4.48,0.38c2.06-1.46,3.98-3,6.21-4.37
	c0.49-0.32,0.97-0.65,1.46-0.97c0.23-0.02,0.47-0.04,0.7-0.05c0.68-0.29,1.98-1.54,2.81-1.3l0.22,0.16c-0.33,2.5-5.69,5.26-7.4,7.02
	v0.27l0.05,0.05c1.77-0.21,3.29-1.35,4.7-1.95c0.86-0.18,1.73-0.36,2.59-0.54c2.68-1.12,4.34-3.29,5.94-5.51
	c0.29-0.4,0.88-0.54,1.08-1.03C264.42,236.95,261.14,234.82,259.39,235.73z M257.17,251.29c-0.29-0.13-0.59-0.53-1.13-0.38
	c-1.35,0.37-2.45,2.64-4.27,2.16c-0.56-1.1,1.23-1.74,0.86-3.24c-0.39-1.58-2.98-1.73-4.75-1.89l-0.27,0.16
	c-1.05,2.8,1.01,2.14,1.67,3.4c0.19,0.56-0.52,1.33-0.65,1.94c-0.1,0.46-0.02,1-0.11,1.35c-1.04,0.66-2.2,1.1-3.29,1.78
	c-0.2,0.18-0.4,0.36-0.59,0.54c-0.98,0.46-2.42,0.22-3.13,0.92v0.22c0.94,0.81,2.99,1.69,4.92,1.13c0.92-0.45,1.84-0.9,2.75-1.35
	c0.16,0.1,0.18,0.09,0.27,0.27c0.16,0.44-0.16,1.03-0.27,1.41c-1.13,3.86-4.4,0.46-7.08,1.62l-0.06,0.16
	c0.14,1.81,5.11,3.33,7.24,2.48c1.43-0.57,4.01-2.37,3.51-4.7c-0.2-0.95-0.73-2.1-0.92-2.86c0.23-0.37,0.49-0.58,0.92-0.76h0.27
	c0.08,0.51-0.33,0.64-0.43,1.14c0.78,0.14,1.14-0.64,1.62-0.97c0.6-0.42,1.24-0.95,1.94-1.24c0.95-0.4,1.99-0.53,2.75-1.08
	C259.25,252.15,258.14,251.72,257.17,251.29z M229.51,251.39c-0.42-0.63-3.13-1.8-4.05-2.16c-0.85-0.33-1.06-0.94-2.43-0.92
	c-0.34,0.09-0.68,0.18-1.03,0.27c-0.98,1.55,0.66,2.47,1.3,3.4c0.56,0.83,0.46,1.7,0.92,2.65c0.74,1.52,3.28,1.52,5.29,1.13
	c0.77-1.16,0.77-1.29,0.43-2.75C229.8,252.39,229.82,251.85,229.51,251.39z M159.88,240.97c-0.29,0.22-0.58,0.43-0.86,0.65
	c-0.76,0.46-1.65,0.73-2.38,1.13c-1.8,0.76-3.6,1.51-5.4,2.27l-0.16-0.05c-0.19-0.43,0.91-2.66,1.19-3.24
	c0.52-1.04,1.04-2.09,1.57-3.13c0.97-1.47,2.31-2.89,2.86-4.75c0.53-1.79-2.58-3.55-4.32-3.51c-1.57,0.72-3.56,0.7-5.78,0.7h-2.32
	c-0.49,0.25-0.97,0.5-1.46,0.76c-0.79,1.36,3.01,5.37,5.02,4.97c1.19-0.24,1.73-1.47,2.65-1.95l0.32-0.05
	c0.35,0.83-0.45,1.81-0.7,2.43c-0.81,1.94-1.08,3.8-1.51,6.27c-0.14,0.78-0.54,1.83-0.06,2.43c-0.14,1.07-3.1,1.73-4.05,2.22
	c-2.38,1.21-4.79,2.42-7.45,3.4c-1.54,0.57-4.55,1.24-5.24,2.48c0.19,1.7,3.06,3.93,5.19,2.65c3.62-2.19,7.32-4.26,10.91-6.54
	c0.95-0.61,3.19-2.51,4.38-2.54l0.05,0.05v0.16c-0.46,0.4-0.82,0.69-1.19,1.19c0.11,0.21,0.11,0.22,0.32,0.32
	c1.65-0.76,3.47-1.72,5.19-2.38c0.54-0.09,1.08-0.18,1.62-0.27c1.79-0.62,4.11-1.45,5.13-2.86
	C163.57,242.58,161.45,240.58,159.88,240.97z M124.66,240.1c0.2-0.93,2.01-3.16,2.81-3.46c0.74-1.2-0.54-2.61-1.73-2.59
	c-0.94,0.46-1.35,1.1-2.16,1.57c-1.66,0.96-3.32,1.92-4.97,2.86c-0.62,0.36-2.33,0.93-2.65,1.46l-0.05,0.32
	c1.89,1.17,3.06-0.91,4.92-0.81c0.38,0.59-0.02,1.37-0.49,1.73c-1.65,1.29-3.08,2.45-4.27,4.21h-0.11c-0.31-0.47-0.61-0.94-0.92-1.4
	c-0.43-0.55-0.96-0.75-1.3-1.46c-1.07-0.03-2.08,0-2.43,0.7c0.14,1.32,1.07,2.43,1.4,3.62c0.11,0.47,0.22,0.94,0.32,1.4
	c0.59,0.29,1.19,0.58,1.78,0.86c1.23-0.06,1.29-0.8,1.78-1.62c0.33-0.44,1.12-0.08,1.67-0.32c0.63-0.45,1.26-0.9,1.89-1.35
	c0.74-0.32,1.48-0.65,2.22-0.97c0.88-0.65,1.88-2.15,2.27-3.24C124.86,241.06,124.53,240.73,124.66,240.1z M130.44,227.35
	c-2.41-1-3.96,1.41-5.19,0.87c-0.58-0.31-0.63-1.11-1.35-1.35l-2.76-0.16c-0.69-0.17-1.48-0.38-2.38-0.38
	c-0.38,0.25-0.65,0.39-0.87,0.81c0.23,2.36,1.94,2.3,2.7,3.78c0.02,0.11,0.04,0.22,0.05,0.32c-0.6,0.6-1.39,0.92-2.11,1.4
	c-0.87,0.59-1.73,1.46-2.65,2c-1,0.58-2.28,0.82-2.75,1.89c-0.02,0.14-0.04,0.29-0.05,0.43c0.38,0.29,0.79,0.59,1.35,0.7
	c0.58,0.11,4.18-0.85,4.7-1.08c0.76-0.33,1.28-1.26,1.89-1.78c1.17-0.99,2.36-1.52,3.84-2.27c1.19-0.6,1.86-1.73,3.4-2.11l1.46,0.27
	c0.47-0.44,2.03-1.65,1.62-2.65C131.19,227.6,130.89,227.54,130.44,227.35z M77.88,251.34c0.32,2.34-2.17,4.27-1.51,6.05
	c0.29,0.04,0.58,0.07,0.86,0.11c0.69-0.61,1.45-1.44,1.94-2.22c0.25-0.4,0.29-0.8,0.65-1.08c1.35-1.08,2.97-1.74,3.78-3.35
	c0-2.03-3.11-3.56-5.24-3.51c-0.69,0.2-1.37,0.4-2.05,0.59C74.99,250.12,77.66,249.64,77.88,251.34z M86.1,224.28
	c-1.59,0.88-0.74,2.59-0.38,4.05c-0.07,0.86-0.14,1.73-0.22,2.59c-0.59,3.56-1.49,7.95-1.19,12.05c0.02,1.26,0.04,2.52,0.05,3.78
	c0.18,1.15,0.58,4.43,0.27,5.51c-0.32,1.12-1.57,1.54-2.16,2.38c-1.25,1.76-3.04,3.48-4.81,4.7c-1.82,1.25-3.66,2.33-4.05,5.02
	c0.45,0.69,0.53,0.66,1.4,0.97c0.44,0.16,0.75,0.66,1.51,0.49c1.72-0.39,4.52-4.37,5.4-5.83c0.4-0.65,0.47-1.57,0.86-2.16
	c0.43-0.64,1.22-2.48,2.27-2.21c0.58,0.36,1.13,2.07,2.32,1.4c0.71-0.34,1-2.33,0.76-3.4c-0.27-1.23-0.67-2.64-0.92-4.11
	c-0.15-0.89,0.25-1.42,0.11-2.27c-0.07-0.58-0.14-1.15-0.22-1.73c0.57-3.15,0.65-6.2,1.57-8.91c0.72-2.12,1.94-3.99,2.43-6.16
	c0.17-0.76-0.29-1.24-0.43-1.73C90.07,226.58,88.79,224.27,86.1,224.28z M126.88,249.66c-0.83-1.12-1.33-2.56-3.29-2.54
	c-0.11,0.09-0.22,0.18-0.32,0.27c-0.15,0.62-0.11,1.52,0,2.21c0.11,0.69-0.3,1.2-0.16,1.73c0.16,0.25,0.32,0.5,0.49,0.76
	c0.69,1.32,1.03,2.15,2.27,2.92c1.5-0.02,3.3-1.42,2.59-3.19C128.09,250.94,127.39,250.35,126.88,249.66z M114.4,255.44
	c-0.61-0.51,1.89-2.04,2.32-2.32C118.34,253.23,115.48,255.92,114.4,255.44z M120.29,249.23c-0.2-0.45-0.61-0.72-1.3-0.7
	c-0.22,0.05-0.43,0.11-0.65,0.16c-0.96,0.49-0.66,2.35-1.57,2.81c-0.29,0.05-0.58,0.11-0.86,0.16c-0.73,0.34-1.61,0.74-2.38,1.19
	c-1.87,1.08-3.58,2.51-5.4,3.62c-0.63,0.34-1.26,0.68-1.89,1.03c-0.32,0.29-0.65,0.58-0.97,0.86c-0.54,0.31-1.22,0.27-1.62,0.7
	c-0.26,2.12,1.55,4.41,4.32,3.3c0.59-0.24,3.28-3.79,3.51-4.48c0.44-0.24,0.96-0.07,1.62-0.22c1.3-0.28,2.56-0.6,4.05-0.38
	c1.05,0.16,2.59,0.53,3.02-0.22c0.82-1.43-0.11-3.55-0.11-5.02C120.07,251.18,120.65,249.91,120.29,249.23z M98.03,251.66
	c-0.05-0.16-0.11-0.32-0.16-0.49c0.67-1.64,1.85-3.23,2.43-4.81c0.26-0.69,0.22-1.33,0.59-1.89c0.87-1.31,3.51-1.56,4.05-3.13
	c0.27-0.79-0.03-1.98-0.54-2.32c-0.32-0.22-0.84-0.08-1.03-0.43c-0.36-0.67,0.59-1.89,0.81-2.32c1.32-2.59,0.27-7.83-2.65-7.83
	c-0.69,0.38-1.77,1.15-1.94,2c-0.02,0.63-0.04,1.26-0.05,1.89c-0.62,2-1.44,4.38-2.21,6.32c-0.45,1.13-0.62,2.36-1.24,3.3
	c-0.64,0.96-1.62,1.69-2.59,2.32c-0.24,0.11-0.47,0.22-0.7,0.32c-0.04,0.2-0.07,0.4-0.11,0.59c0.36,0.25,0.82,0.32,1.4,0.38
	c0.48,0.81-0.26,1.7-0.54,2.43c-0.76,2.01-3.58,6.49-1.08,8.32c0.49,0.36,1.25,0.55,1.95,0.27c0.94-0.36,1.87-0.72,2.81-1.08
	c1.79-0.52,4.81-0.56,5.24-2.38c0.12-0.5-0.16-0.89-0.32-1.13C100.83,249.99,99.67,251.82,98.03,251.66z M242.1,239.35
	c0.02,0.02,0.04,0.04,0.05,0.05c0.64-0.06,3.51-0.17,3.84-0.54c0.13-0.64,0.17-1.49-0.06-2.05c-0.52-1.31-3.1-4.37-4.81-4.43
	c-0.09,0.07-0.18,0.14-0.27,0.22c-0.45,1.8,0.79,3.87,1.67,4.92C242.4,238.2,242.1,238.56,242.1,239.35z M170.4,0
	C264.07,0,340,75.93,340,169.6c0,93.67-75.93,169.6-169.6,169.6c-93.67,0-169.6-75.93-169.6-169.6C0.81,75.93,76.74,0,170.4,0z"/>
</svg>
