<?xml version="1.0" encoding="utf-8"?>
<!-- Generator: Adobe Illustrator 26.1.0, SVG Export Plug-In . SVG Version: 6.00 Build 0)  -->
<svg version="1.1" id="图层_1" xmlns="http://www.w3.org/2000/svg" xmlns:xlink="http://www.w3.org/1999/xlink" x="0px" y="0px"
	 viewBox="0 0 566.93 340.16" enable-background="new 0 0 566.93 340.16" xml:space="preserve">
<path fill-rule="evenodd" clip-rule="evenodd" fill="#0095C1" d="M548.88,209.86L548.88,209.86 M548.88,209.86L548.88,209.86
	 M550.99,220.22v-0.36v-0.15h0.15h0.08c0.56,0,0.95-0.1,1.16-0.29h0c0.1-0.09,0.18-0.22,0.23-0.38c0.05-0.17,0.08-0.39,0.08-0.65
	v-3.19l-3.83-5.33c-0.11-0.15-0.23-0.28-0.35-0.38c-0.12-0.11-0.25-0.2-0.38-0.26v0c-0.13-0.07-0.28-0.12-0.44-0.16
	c-0.16-0.04-0.34-0.06-0.53-0.07l-0.15-0.01v-0.15v-0.36v-0.16h0.15h5.43h0.16v0.16v0.35v0.14l-0.14,0.01
	c-0.25,0.02-0.46,0.05-0.64,0.08c-0.17,0.03-0.3,0.06-0.39,0.1c-0.08,0.03-0.13,0.07-0.17,0.1c-0.02,0.03-0.04,0.06-0.04,0.1
	c0,0.06,0.02,0.15,0.06,0.24v0c0.04,0.1,0.12,0.23,0.21,0.37l0.03,0.04l0.01,0.01l2.67,3.83l2.26-3.47l0,0
	c0.11-0.17,0.21-0.31,0.28-0.44c0.08-0.12,0.13-0.22,0.16-0.28c0.03-0.06,0.05-0.11,0.06-0.16c0.01-0.04,0.02-0.08,0.02-0.11
	c0-0.05-0.01-0.09-0.04-0.12c-0.03-0.04-0.08-0.07-0.14-0.11l0,0c-0.08-0.04-0.2-0.07-0.35-0.1h0c-0.16-0.03-0.36-0.06-0.6-0.08
	l-0.14-0.01v-0.14v-0.36v-0.16h0.16h3.68h0.16v0.16v0.36v0.15l-0.15,0.01c-0.16,0.01-0.32,0.04-0.46,0.09
	c-0.14,0.05-0.27,0.11-0.39,0.2h0c-0.12,0.08-0.26,0.21-0.4,0.39c-0.15,0.18-0.32,0.4-0.5,0.67l-3.1,4.68v3.52
	c0,0.23,0.03,0.43,0.08,0.58c0.05,0.14,0.13,0.25,0.22,0.33l0,0c0.1,0.08,0.26,0.14,0.47,0.19c0.22,0.05,0.5,0.08,0.83,0.09l0.15,0
	v0.15v0.36v0.16h-0.15h-5.35h-0.15V220.22z M546.05,219.18c-0.38,0.24-0.77,0.45-1.16,0.64c-0.39,0.18-0.8,0.34-1.21,0.46v0
	c-0.41,0.12-0.83,0.22-1.25,0.28c-0.42,0.06-0.86,0.09-1.29,0.09c-0.98,0-1.87-0.14-2.66-0.42c-0.8-0.28-1.5-0.71-2.11-1.27
	c-0.61-0.57-1.07-1.22-1.37-1.97h0c-0.3-0.74-0.46-1.57-0.46-2.49c0-0.95,0.15-1.81,0.46-2.58c0.31-0.78,0.77-1.46,1.39-2.06
	c0.62-0.6,1.33-1.05,2.12-1.35c0.8-0.3,1.68-0.45,2.66-0.45c0.38,0,0.76,0.03,1.14,0.09c0.38,0.06,0.76,0.16,1.14,0.28h0
	c0.36,0.12,0.65,0.21,0.85,0.27c0.19,0.06,0.3,0.09,0.31,0.09c0.05,0,0.09-0.01,0.13-0.03c0.04-0.02,0.08-0.05,0.11-0.09h0
	c0.04-0.04,0.07-0.1,0.1-0.16c0.03-0.07,0.06-0.15,0.08-0.24l0.03-0.11l0.12,0l0.29-0.01l0.15,0l0.01,0.15l0.18,3.62l0.01,0.16
	h-0.16h-0.36h-0.11l-0.04-0.1c-0.21-0.53-0.43-0.98-0.69-1.36h0c-0.25-0.37-0.52-0.67-0.81-0.9c-0.29-0.22-0.63-0.39-1.01-0.5
	c-0.39-0.11-0.83-0.17-1.31-0.17c-0.68,0-1.28,0.12-1.82,0.36c-0.54,0.24-1.01,0.6-1.42,1.08v0c-0.41,0.48-0.72,1.05-0.92,1.69
	c-0.21,0.65-0.31,1.37-0.31,2.18c0,0.82,0.1,1.55,0.31,2.2c0.21,0.65,0.52,1.21,0.94,1.69c0.41,0.48,0.89,0.84,1.44,1.08
	c0.55,0.24,1.17,0.36,1.86,0.36c0.25,0,0.5-0.02,0.74-0.06h0c0.24-0.04,0.47-0.1,0.7-0.18c0.23-0.08,0.44-0.17,0.63-0.28
	c0.17-0.09,0.32-0.2,0.46-0.32v-3.11c0-0.33-0.02-0.59-0.07-0.79c-0.04-0.17-0.09-0.29-0.16-0.34h0c-0.08-0.06-0.22-0.11-0.45-0.15
	c-0.24-0.04-0.55-0.08-0.94-0.09l-0.15-0.01v-0.15v-0.37v-0.16h0.16h5.02h0.15v0.16v0.37v0.15l-0.15,0
	c-0.27,0.01-0.5,0.03-0.68,0.08v0c-0.16,0.04-0.28,0.09-0.36,0.16c-0.07,0.06-0.12,0.17-0.16,0.33c-0.04,0.18-0.06,0.41-0.06,0.7
	v3.42v0.08L546.05,219.18z M519.93,214.34c0-0.94,0.14-1.8,0.43-2.56c0.28-0.76,0.71-1.43,1.28-2c0.57-0.58,1.24-1.01,1.99-1.29
	c0.75-0.29,1.6-0.43,2.53-0.43c0.94,0,1.78,0.14,2.53,0.43c0.76,0.29,1.42,0.72,1.99,1.29c0.57,0.57,1,1.24,1.28,2
	c0.28,0.76,0.43,1.61,0.43,2.56c0,0.95-0.14,1.8-0.43,2.57c-0.28,0.77-0.71,1.44-1.28,2.01c-0.57,0.58-1.24,1.01-1.99,1.3
	c-0.75,0.29-1.6,0.43-2.54,0.43c-0.93,0-1.78-0.14-2.53-0.43c-0.76-0.29-1.42-0.72-1.99-1.3h0c-0.57-0.58-1-1.25-1.28-2.01
	C520.07,216.14,519.93,215.29,519.93,214.34z M522.26,214.34c0,0.83,0.09,1.58,0.27,2.23c0.18,0.65,0.44,1.22,0.8,1.7
	c0.35,0.47,0.76,0.83,1.23,1.07c0.47,0.24,1,0.35,1.6,0.35c0.6,0,1.13-0.12,1.6-0.35c0.47-0.24,0.88-0.59,1.23-1.07
	c0.35-0.48,0.62-1.05,0.8-1.7l0,0c0.18-0.66,0.27-1.4,0.27-2.23c0-0.83-0.09-1.57-0.27-2.22c-0.18-0.65-0.44-1.21-0.8-1.69
	c-0.35-0.47-0.76-0.83-1.23-1.06l0,0c-0.47-0.24-1.01-0.35-1.6-0.35c-0.6,0-1.13,0.12-1.6,0.35c-0.47,0.23-0.88,0.59-1.23,1.06
	c-0.35,0.48-0.62,1.04-0.8,1.69C522.35,212.77,522.26,213.51,522.26,214.34z M507.8,220.22v-0.36v-0.15h0.16h0.08
	c0.3,0,0.55-0.03,0.75-0.09c0.19-0.05,0.33-0.13,0.42-0.23v0c0.1-0.1,0.17-0.26,0.22-0.47c0.05-0.22,0.08-0.5,0.08-0.84v-7.65
	c0-0.33-0.03-0.6-0.08-0.81h0c-0.05-0.19-0.12-0.32-0.2-0.39l0,0c-0.09-0.08-0.24-0.14-0.44-0.18c-0.22-0.05-0.49-0.07-0.82-0.07
	l-0.15,0l0-0.15l-0.01-0.36l0-0.16h0.16h5.35h0.16v0.16v0.36v0.16h-0.16h-0.08c-0.3,0-0.55,0.03-0.76,0.08
	c-0.19,0.05-0.34,0.13-0.44,0.22c-0.1,0.1-0.18,0.24-0.23,0.42c-0.06,0.19-0.08,0.44-0.08,0.72v7.9c0,0.25,0.02,0.46,0.05,0.61
	c0.03,0.13,0.07,0.22,0.12,0.26c0.05,0.05,0.15,0.09,0.28,0.11h0c0.15,0.03,0.34,0.05,0.57,0.05h2.03c0.42,0,0.81-0.05,1.15-0.14
	c0.34-0.09,0.65-0.23,0.91-0.41v0c0.27-0.18,0.51-0.42,0.73-0.71l0,0c0.22-0.29,0.41-0.64,0.58-1.04l0.04-0.1h0.1h0.36h0.21
	l-0.06,0.2l-0.96,3.09l-0.03,0.11h-0.11h-9.72h-0.16V220.22z M493.57,214.34c0-0.94,0.14-1.8,0.43-2.56c0.28-0.76,0.71-1.43,1.28-2
	c0.57-0.58,1.24-1.01,1.99-1.29h0c0.75-0.29,1.6-0.43,2.53-0.43c0.94,0,1.78,0.14,2.53,0.43c0.76,0.29,1.42,0.72,1.99,1.29
	c0.57,0.57,1,1.24,1.28,2c0.28,0.76,0.43,1.61,0.43,2.56c0,0.95-0.14,1.8-0.43,2.57c-0.29,0.77-0.71,1.44-1.28,2.01
	c-0.57,0.58-1.24,1.01-1.99,1.3c-0.75,0.29-1.6,0.43-2.53,0.43c-0.93,0-1.78-0.14-2.53-0.43c-0.75-0.29-1.42-0.72-1.99-1.3h0
	c-0.57-0.58-1-1.25-1.28-2.01C493.71,216.14,493.57,215.29,493.57,214.34z M495.9,214.34c0,0.83,0.09,1.58,0.27,2.23
	c0.18,0.65,0.44,1.22,0.8,1.7c0.35,0.47,0.76,0.83,1.23,1.07c0.47,0.24,1,0.35,1.6,0.35c0.6,0,1.13-0.12,1.6-0.35
	c0.47-0.24,0.88-0.59,1.23-1.07c0.36-0.48,0.62-1.05,0.8-1.7c0.18-0.66,0.27-1.4,0.27-2.23c0-0.83-0.09-1.57-0.27-2.22
	c-0.18-0.65-0.44-1.21-0.8-1.69c-0.35-0.47-0.76-0.83-1.23-1.06l0,0c-0.47-0.24-1.01-0.35-1.6-0.35c-0.6,0-1.13,0.12-1.6,0.35
	c-0.47,0.24-0.88,0.59-1.23,1.06c-0.35,0.48-0.62,1.04-0.8,1.69C495.99,212.77,495.9,213.51,495.9,214.34z M482.04,218.25
	c0,0.31,0.03,0.57,0.08,0.77c0.05,0.18,0.11,0.3,0.19,0.38h0c0.09,0.08,0.24,0.14,0.45,0.2c0.22,0.06,0.5,0.1,0.84,0.12l0.14,0.01
	v0.14v0.36v0.16h-0.16h-4.23h-0.16v-0.16v-0.36v-0.14l0.14-0.01c0.34-0.02,0.62-0.07,0.84-0.12c0.21-0.05,0.36-0.12,0.45-0.2
	c0.08-0.07,0.15-0.2,0.19-0.38h0c0.05-0.2,0.08-0.45,0.08-0.77v-8.18c-0.1-0.17-0.21-0.32-0.31-0.45c-0.12-0.14-0.24-0.25-0.36-0.34
	v0c-0.12-0.09-0.26-0.15-0.4-0.2c-0.15-0.05-0.31-0.09-0.48-0.1l-0.14-0.01v-0.14v-0.36v-0.16h0.16h3.03h0.07l0.05,0.06l6.68,8.02
	v-5.96c0-0.31-0.03-0.57-0.08-0.77c-0.05-0.18-0.11-0.3-0.19-0.38c-0.09-0.08-0.23-0.14-0.44-0.19c-0.22-0.06-0.5-0.09-0.84-0.12
	l-0.15-0.01v-0.15v-0.36v-0.16h0.16h4.21h0.15v0.16v0.36v0.15l-0.15,0.01c-0.34,0.02-0.62,0.06-0.84,0.12
	c-0.2,0.05-0.35,0.12-0.44,0.19c-0.08,0.07-0.15,0.2-0.19,0.38h0c-0.05,0.2-0.08,0.45-0.08,0.77v9.79v0.16h-0.16h-0.36h-0.07
	l-0.05-0.06l-7.66-9.15V218.25z M464.51,220.22l0.01-0.36l0-0.15l0.15,0c0.33,0,0.61-0.03,0.83-0.09c0.2-0.05,0.35-0.12,0.45-0.2
	c0.09-0.09,0.16-0.22,0.21-0.4c0.05-0.19,0.08-0.44,0.08-0.73v-7.89c0-0.29-0.03-0.53-0.08-0.72c-0.05-0.18-0.13-0.31-0.22-0.4
	c-0.1-0.09-0.25-0.16-0.46-0.22c-0.22-0.06-0.49-0.09-0.82-0.1l-0.15-0.01v-0.15v-0.35v-0.16h0.15h5.31h0.16v0.16v0.35v0.15
	l-0.15,0.01c-0.34,0.02-0.62,0.05-0.83,0.11c-0.2,0.05-0.35,0.12-0.45,0.21c-0.09,0.08-0.16,0.22-0.21,0.39v0
	c-0.05,0.19-0.08,0.43-0.08,0.72v2.93c0,0.1,0.01,0.17,0.02,0.23v0c0.01,0.04,0.02,0.07,0.04,0.09c0.02,0.02,0.05,0.03,0.09,0.04
	c0.06,0.01,0.13,0.02,0.22,0.02h5c0.08,0,0.14-0.01,0.18-0.02v0c0.03-0.01,0.05-0.02,0.06-0.03c0.01-0.02,0.03-0.05,0.04-0.11
	c0.01-0.07,0.02-0.16,0.02-0.26v-2.89c0-0.29-0.03-0.52-0.08-0.71v0c-0.05-0.18-0.12-0.31-0.21-0.39v0
	c-0.09-0.09-0.25-0.16-0.45-0.21c-0.22-0.06-0.5-0.09-0.83-0.11l-0.15-0.01l0-0.15l-0.01-0.36l0-0.16h0.16h5.33H478v0.16v0.36v0.15
	l-0.15,0c-0.33,0.01-0.61,0.04-0.82,0.09c-0.2,0.05-0.36,0.12-0.45,0.21v0c-0.09,0.08-0.17,0.22-0.22,0.39
	c-0.05,0.19-0.08,0.44-0.08,0.73v7.89c0,0.29,0.03,0.52,0.08,0.71c0.05,0.18,0.12,0.31,0.22,0.4c0.1,0.09,0.25,0.16,0.45,0.21h0
	c0.22,0.06,0.49,0.09,0.82,0.1l0.15,0v0.15v0.36v0.16h-0.15h-5.33h-0.16l0-0.16l0.01-0.36l0-0.15l0.15,0
	c0.33-0.01,0.61-0.04,0.82-0.09c0.2-0.05,0.35-0.12,0.45-0.21h0c0.09-0.09,0.17-0.22,0.22-0.39c0.05-0.19,0.08-0.43,0.08-0.71v-3.23
	c0-0.1-0.01-0.18-0.02-0.24c-0.01-0.05-0.02-0.07-0.03-0.09v0c-0.01-0.01-0.03-0.02-0.06-0.03c-0.05-0.01-0.11-0.02-0.19-0.02h-5.01
	c-0.08,0-0.15,0.01-0.2,0.02c-0.04,0.01-0.07,0.03-0.09,0.05c-0.02,0.02-0.04,0.06-0.05,0.1v0c-0.02,0.05-0.02,0.13-0.02,0.21v3.22
	c0,0.29,0.03,0.53,0.08,0.72c0.05,0.18,0.12,0.31,0.21,0.39l0,0c0.1,0.09,0.24,0.16,0.45,0.21c0.22,0.05,0.49,0.09,0.82,0.09l0.15,0
	v0.15v0.36v0.16h-0.16h-5.31h-0.16L464.51,220.22z M463.11,217.39l0.29,0.31l0.09,0.09l-0.07,0.1c-0.33,0.46-0.68,0.86-1.06,1.21
	c-0.38,0.35-0.78,0.64-1.2,0.86c-0.42,0.23-0.87,0.4-1.35,0.51c-0.48,0.11-0.98,0.17-1.51,0.17c-0.94,0-1.8-0.14-2.56-0.43
	c-0.76-0.28-1.43-0.71-2.01-1.28l0,0c-0.58-0.57-1.01-1.23-1.29-1.99c-0.29-0.75-0.43-1.59-0.43-2.52c0-0.93,0.15-1.77,0.45-2.54
	c0.3-0.77,0.75-1.45,1.35-2.04c0.6-0.6,1.28-1.05,2.05-1.34c0.77-0.3,1.62-0.45,2.55-0.45c0.35,0,0.72,0.03,1.09,0.09
	c0.37,0.06,0.74,0.14,1.12,0.26c0.37,0.11,0.66,0.2,0.87,0.25c0.19,0.05,0.31,0.08,0.34,0.08c0.06,0,0.12-0.01,0.17-0.03l0,0
	c0.05-0.02,0.09-0.05,0.13-0.09c0.04-0.04,0.07-0.09,0.08-0.14h0c0.02-0.05,0.03-0.12,0.03-0.19v-0.15h0.16h0.32h0.14l0.01,0.14
	l0.34,3.81l0.02,0.17h-0.17h-0.36h-0.11l-0.03-0.11c-0.16-0.52-0.37-0.98-0.61-1.37l0,0c-0.24-0.39-0.53-0.72-0.85-0.98v0
	c-0.32-0.26-0.68-0.46-1.07-0.59c-0.39-0.13-0.82-0.2-1.29-0.2c-0.66,0-1.25,0.12-1.77,0.36c-0.52,0.24-0.99,0.61-1.39,1.09l0,0
	c-0.4,0.49-0.7,1.06-0.9,1.7c-0.2,0.65-0.3,1.38-0.3,2.19c0,0.78,0.1,1.49,0.3,2.12c0.2,0.63,0.5,1.19,0.9,1.68
	c0.4,0.49,0.85,0.86,1.36,1.1c0.51,0.24,1.07,0.36,1.69,0.36c0.43,0,0.84-0.04,1.23-0.13c0.38-0.09,0.74-0.22,1.08-0.39
	c0.34-0.17,0.67-0.4,1-0.68c0.33-0.28,0.66-0.62,0.98-1.01l0.11-0.13L463.11,217.39z M438.92,220.22l0.01-0.36l0-0.15l0.15,0
	c0.33-0.01,0.61-0.04,0.83-0.09c0.2-0.05,0.36-0.11,0.45-0.2l0,0c0.09-0.08,0.16-0.21,0.21-0.38h0c0.05-0.19,0.08-0.43,0.08-0.73
	v-7.9c0-0.29-0.03-0.53-0.08-0.72c-0.05-0.18-0.12-0.31-0.21-0.39l0,0c-0.09-0.08-0.25-0.15-0.45-0.21
	c-0.22-0.06-0.5-0.09-0.84-0.11l-0.15-0.01v-0.15v-0.35v-0.16h0.16h10.05h0.15l0.01,0.15l0.16,2.6l0.01,0.16h-0.16h-0.36h-0.13
	l-0.02-0.13c-0.06-0.36-0.14-0.66-0.25-0.9c-0.1-0.23-0.23-0.4-0.37-0.52v0c-0.15-0.12-0.35-0.21-0.62-0.27h0
	c-0.28-0.06-0.62-0.1-1.03-0.1h-2.97c-0.17,0-0.31,0.01-0.41,0.03c-0.09,0.02-0.15,0.04-0.18,0.07l0,0
	c-0.03,0.02-0.05,0.07-0.07,0.15c-0.02,0.1-0.04,0.24-0.04,0.42v3.16c0,0.11,0.01,0.2,0.02,0.27c0.01,0.05,0.02,0.08,0.03,0.09
	c0.01,0.01,0.04,0.02,0.08,0.03c0.07,0.01,0.16,0.02,0.28,0.02h2.34c0.45,0,0.82-0.03,1.11-0.08c0.27-0.05,0.47-0.13,0.59-0.23l0,0
	c0.12-0.1,0.21-0.24,0.28-0.43c0.07-0.2,0.12-0.46,0.13-0.76l0.01-0.15h0.15h0.36h0.16v0.16v4.04v0.16h-0.16h-0.36h-0.14l-0.01-0.15
	c-0.02-0.32-0.07-0.59-0.14-0.81c-0.07-0.2-0.16-0.35-0.28-0.45l0,0c-0.11-0.1-0.31-0.17-0.58-0.23c-0.29-0.06-0.66-0.08-1.11-0.08
	h-2.36c-0.1,0-0.19,0.01-0.25,0.02c-0.04,0.01-0.07,0.02-0.08,0.03l-0.01,0.01c-0.01,0.01-0.02,0.04-0.03,0.08l0,0
	c-0.01,0.07-0.02,0.16-0.02,0.27v3.52c0,0.21,0.01,0.37,0.04,0.5l0,0c0.02,0.11,0.05,0.19,0.09,0.24v0c0.04,0.04,0.1,0.08,0.18,0.1
	c0.1,0.03,0.22,0.04,0.37,0.04h2.75c0.55,0,1.01-0.04,1.41-0.12c0.38-0.07,0.69-0.19,0.92-0.34c0.23-0.15,0.45-0.37,0.65-0.66
	c0.21-0.3,0.41-0.67,0.59-1.11l0.06-0.15l0.15,0.07l0.32,0.16l0.12,0.06l-0.04,0.13l-0.92,2.88l-0.03,0.11h-0.11h-10.29h-0.16
	L438.92,220.22z M429.44,220.22v-0.36v-0.15h0.16c0.7,0,1.15-0.1,1.34-0.29c0.09-0.09,0.16-0.24,0.21-0.46
	c0.05-0.23,0.08-0.53,0.08-0.9v-8.39c0-0.11-0.01-0.2-0.02-0.26l0,0c-0.01-0.04-0.01-0.06-0.02-0.06c-0.02-0.01-0.06-0.02-0.14-0.03
	h0c-0.1-0.01-0.23-0.02-0.39-0.02h-0.29c-0.56,0-1.03,0.04-1.4,0.12c-0.36,0.08-0.63,0.19-0.81,0.33c-0.18,0.15-0.33,0.36-0.44,0.65
	c-0.12,0.3-0.21,0.66-0.25,1.1l-0.01,0.14h-0.14h-0.36h-0.16l0-0.16l0.1-3.02l0.01-0.15h0.15h10.65h0.15v0.16v3.02v0.16h-0.15h-0.37
	h-0.14l-0.01-0.14c-0.05-0.45-0.12-0.82-0.24-1.12c-0.11-0.28-0.24-0.5-0.41-0.64c-0.16-0.14-0.45-0.25-0.85-0.32
	c-0.42-0.08-0.96-0.12-1.62-0.12c-0.19,0-0.34,0.01-0.45,0.02c-0.08,0.01-0.13,0.02-0.14,0.03l0,0c-0.01,0.01-0.02,0.03-0.02,0.07
	l0,0c-0.01,0.06-0.02,0.14-0.02,0.25V218c0,0.41,0.03,0.74,0.09,0.98c0.05,0.22,0.12,0.37,0.21,0.45c0.1,0.08,0.25,0.14,0.47,0.19
	c0.23,0.05,0.52,0.08,0.87,0.09l0.15,0l0,0.15l0.01,0.36l0,0.16h-0.16h-5.46h-0.16V220.22z M412.15,220.22l0.01-0.36l0-0.15
	l0.14-0.01c0.35-0.01,0.64-0.05,0.86-0.1h0c0.21-0.05,0.36-0.11,0.44-0.19c0.08-0.07,0.15-0.2,0.2-0.38
	c0.05-0.19,0.07-0.44,0.07-0.75v-7.87c0-0.29-0.03-0.54-0.08-0.73c-0.05-0.18-0.13-0.31-0.22-0.4h0c-0.1-0.09-0.25-0.16-0.45-0.21v0
	c-0.22-0.05-0.49-0.08-0.82-0.08h-0.16v-0.16v-0.37v-0.16h0.16h9.75h0.15l0.01,0.15l0.18,2.77l0.01,0.16h-0.17h-0.36h-0.13
	l-0.02-0.13c-0.06-0.38-0.16-0.7-0.27-0.96l0,0c-0.11-0.25-0.25-0.44-0.41-0.57c-0.16-0.13-0.39-0.23-0.67-0.3
	c-0.29-0.07-0.64-0.11-1.06-0.11h-2.5c-0.16,0-0.3,0.01-0.4,0.04c-0.09,0.02-0.17,0.06-0.21,0.1v0c-0.05,0.04-0.08,0.11-0.11,0.19
	c-0.03,0.1-0.04,0.21-0.04,0.36v3.18c0,0.12,0.01,0.22,0.02,0.29c0.01,0.05,0.02,0.08,0.03,0.1c0.01,0.01,0.04,0.02,0.09,0.03
	c0.06,0.01,0.15,0.02,0.25,0.02h1.56c0.44,0,0.8-0.03,1.09-0.08c0.27-0.05,0.47-0.13,0.59-0.23v0c0.12-0.1,0.21-0.24,0.28-0.43
	c0.07-0.2,0.1-0.46,0.1-0.77v-0.15h0.16h0.36h0.16v0.15v4.16v0.16h-0.16h-0.36h-0.14l-0.01-0.14c-0.03-0.36-0.07-0.65-0.14-0.88v0
	c-0.07-0.21-0.15-0.37-0.26-0.47c-0.1-0.09-0.29-0.17-0.55-0.22c-0.28-0.06-0.66-0.08-1.11-0.08h-1.58c-0.09,0-0.16,0.01-0.22,0.02
	h0c-0.04,0.01-0.07,0.02-0.09,0.04l0,0c-0.02,0.02-0.03,0.04-0.04,0.08c-0.01,0.05-0.02,0.12-0.02,0.2v3.26
	c0,0.3,0.03,0.54,0.09,0.74c0.06,0.18,0.14,0.32,0.24,0.41c0.11,0.09,0.27,0.17,0.49,0.22h0c0.24,0.06,0.53,0.09,0.89,0.09l0.15,0
	l0,0.15l0.01,0.36l0,0.16h-0.16h-5.47h-0.16L412.15,220.22z M397.93,214.34c0-0.94,0.14-1.8,0.43-2.56c0.28-0.76,0.71-1.43,1.28-2
	c0.57-0.58,1.24-1.01,1.99-1.29c0.75-0.29,1.6-0.43,2.53-0.43c0.94,0,1.78,0.14,2.53,0.43c0.76,0.29,1.42,0.72,1.99,1.29
	c0.57,0.57,1,1.24,1.28,2c0.28,0.76,0.43,1.61,0.43,2.56c0,0.95-0.14,1.8-0.43,2.57c-0.28,0.77-0.71,1.44-1.28,2.01
	c-0.57,0.58-1.24,1.01-1.99,1.3c-0.75,0.29-1.6,0.43-2.53,0.43c-0.93,0-1.78-0.14-2.53-0.43c-0.76-0.29-1.42-0.72-1.99-1.3h0
	c-0.57-0.58-1-1.25-1.28-2.01C398.07,216.14,397.93,215.29,397.93,214.34z M400.26,214.34c0,0.83,0.09,1.58,0.27,2.23
	c0.18,0.65,0.44,1.22,0.8,1.7c0.35,0.47,0.76,0.83,1.23,1.07c0.47,0.24,1,0.35,1.6,0.35c0.6,0,1.13-0.12,1.6-0.35
	c0.47-0.24,0.88-0.59,1.23-1.07c0.35-0.48,0.62-1.05,0.8-1.7l0,0c0.18-0.66,0.27-1.4,0.27-2.23c0-0.83-0.09-1.57-0.27-2.22
	c-0.18-0.65-0.44-1.21-0.8-1.69c-0.35-0.47-0.76-0.83-1.23-1.06l0,0c-0.47-0.24-1.01-0.35-1.6-0.35c-0.6,0-1.13,0.12-1.6,0.35
	c-0.47,0.23-0.88,0.59-1.23,1.06c-0.35,0.48-0.62,1.04-0.8,1.69C400.35,212.77,400.26,213.51,400.26,214.34z M381.96,209.86
	L381.96,209.86 M381.96,209.86L381.96,209.86 M384.07,220.22v-0.36v-0.15h0.16h0.08c0.56,0,0.95-0.1,1.16-0.29h0
	c0.1-0.09,0.18-0.22,0.23-0.38c0.05-0.17,0.08-0.39,0.08-0.65v-3.19l-3.83-5.33c-0.11-0.15-0.23-0.28-0.35-0.38
	c-0.12-0.11-0.25-0.19-0.38-0.26v0c-0.13-0.07-0.28-0.12-0.44-0.16c-0.16-0.04-0.34-0.06-0.53-0.07l-0.15-0.01v-0.15v-0.36v-0.16
	h0.16h5.43h0.15v0.16v0.35v0.14l-0.14,0.01c-0.25,0.02-0.46,0.05-0.64,0.08c-0.17,0.03-0.3,0.06-0.39,0.1
	c-0.08,0.03-0.13,0.07-0.17,0.1v0c-0.02,0.03-0.04,0.06-0.04,0.1c0,0.06,0.02,0.15,0.06,0.24v0c0.04,0.1,0.12,0.23,0.21,0.37
	l0.03,0.04l0.01,0.01l2.67,3.83l2.26-3.47l0,0c0.12-0.17,0.21-0.32,0.28-0.43v0c0.08-0.12,0.13-0.22,0.16-0.28
	c0.03-0.06,0.05-0.11,0.06-0.16c0.01-0.04,0.02-0.08,0.02-0.11c0-0.05-0.01-0.09-0.04-0.12h0c-0.03-0.04-0.08-0.08-0.14-0.11v0
	c-0.08-0.04-0.2-0.07-0.35-0.1c-0.16-0.03-0.36-0.06-0.6-0.08l-0.14-0.01v-0.14v-0.36v-0.16h0.16h3.68h0.16v0.16v0.36v0.15
	l-0.15,0.01c-0.16,0.01-0.32,0.04-0.46,0.09c-0.14,0.05-0.27,0.11-0.39,0.2h0c-0.12,0.08-0.26,0.21-0.4,0.39
	c-0.15,0.18-0.32,0.4-0.5,0.67l-3.1,4.68v3.52c0,0.23,0.03,0.43,0.08,0.58h0c0.05,0.14,0.13,0.25,0.22,0.33l0,0
	c0.1,0.08,0.26,0.14,0.47,0.19c0.22,0.05,0.5,0.08,0.83,0.09l0.15,0v0.15v0.36v0.16h-0.16h-5.35h-0.16V220.22z M370.77,220.22v-0.36
	v-0.15h0.16c0.7,0,1.14-0.1,1.34-0.29c0.09-0.09,0.16-0.24,0.21-0.46c0.05-0.23,0.08-0.53,0.08-0.9v-8.39c0-0.11-0.01-0.2-0.02-0.26
	l0,0c-0.01-0.04-0.02-0.06-0.02-0.06c-0.02-0.01-0.06-0.02-0.14-0.03h0c-0.1-0.01-0.23-0.02-0.39-0.02h-0.29
	c-0.56,0-1.03,0.04-1.4,0.12c-0.36,0.08-0.63,0.19-0.81,0.33c-0.18,0.15-0.33,0.36-0.44,0.65c-0.12,0.3-0.21,0.66-0.25,1.1
	l-0.01,0.14h-0.14h-0.36h-0.16l0-0.16l0.1-3.02l0.01-0.15h0.15h10.65h0.15v0.16v3.02v0.16h-0.15h-0.37h-0.14l-0.01-0.14
	c-0.05-0.45-0.12-0.82-0.24-1.12c-0.11-0.28-0.24-0.5-0.41-0.64c-0.16-0.14-0.45-0.25-0.85-0.32c-0.42-0.08-0.96-0.12-1.62-0.12
	c-0.19,0-0.34,0.01-0.45,0.02c-0.08,0.01-0.13,0.02-0.14,0.03l0,0c-0.01,0.01-0.02,0.03-0.02,0.07l0,0
	c-0.01,0.06-0.02,0.14-0.02,0.25V218c0,0.41,0.03,0.74,0.08,0.98c0.05,0.22,0.12,0.37,0.21,0.45c0.1,0.08,0.25,0.14,0.47,0.19
	c0.23,0.05,0.52,0.08,0.87,0.09l0.15,0l0,0.15l0.01,0.36l0,0.16h-0.16h-5.46h-0.16V220.22z M361.09,220.22v-0.36v-0.15l0.15,0
	c0.33-0.01,0.61-0.04,0.82-0.09c0.2-0.05,0.35-0.12,0.45-0.2v0c0.09-0.08,0.17-0.21,0.21-0.39v0c0.05-0.19,0.08-0.44,0.08-0.73
	v-7.88c0-0.29-0.03-0.53-0.08-0.72c-0.05-0.18-0.13-0.31-0.22-0.4c-0.1-0.09-0.25-0.16-0.46-0.21h0c-0.22-0.06-0.49-0.09-0.81-0.1
	l-0.15,0v-0.15v-0.36v-0.16h0.15h5.35h0.16l0,0.16l-0.01,0.36l0,0.15l-0.15,0.01c-0.34,0.01-0.62,0.05-0.84,0.11
	c-0.21,0.05-0.36,0.12-0.45,0.21c-0.09,0.09-0.16,0.22-0.21,0.39c-0.05,0.19-0.08,0.43-0.08,0.72v7.88c0,0.29,0.03,0.53,0.08,0.72
	c0.05,0.18,0.12,0.31,0.22,0.39l0,0c0.1,0.09,0.25,0.16,0.45,0.21c0.22,0.05,0.49,0.09,0.82,0.09l0.15,0l0,0.15l0.01,0.36l0,0.16
	h-0.16h-5.35h-0.15V220.22z M351.67,220.49l-0.65-3.79l-0.03-0.18h0.18h0.36h0.1l0.04,0.1c0.2,0.5,0.43,0.94,0.68,1.32
	c0.25,0.38,0.53,0.71,0.83,0.98v0c0.3,0.27,0.61,0.47,0.92,0.61c0.31,0.13,0.64,0.2,0.97,0.2c0.29,0,0.56-0.05,0.81-0.14
	c0.24-0.09,0.46-0.23,0.66-0.42c0.19-0.18,0.34-0.39,0.44-0.62c0.1-0.23,0.15-0.48,0.15-0.76c0-0.2-0.03-0.4-0.1-0.58h0
	c-0.06-0.19-0.16-0.37-0.29-0.55c-0.13-0.18-0.31-0.36-0.52-0.53h0c-0.21-0.17-0.46-0.34-0.75-0.51l0,0l-1.83-1.11h0
	c-0.4-0.24-0.75-0.48-1.04-0.72c-0.3-0.25-0.53-0.5-0.71-0.76c-0.18-0.26-0.32-0.53-0.41-0.83c-0.09-0.3-0.14-0.61-0.14-0.94
	c0-0.47,0.08-0.9,0.25-1.28h0c0.17-0.39,0.42-0.73,0.75-1.03c0.33-0.3,0.72-0.52,1.15-0.67c0.43-0.15,0.91-0.22,1.44-0.22
	c0.25,0,0.5,0.02,0.76,0.07c0.26,0.05,0.52,0.11,0.8,0.21v0c0.27,0.09,0.48,0.15,0.63,0.2c0.14,0.04,0.23,0.06,0.27,0.06
	c0.04,0,0.08-0.01,0.11-0.02c0.03-0.01,0.05-0.03,0.08-0.06l0,0c0.02-0.03,0.05-0.07,0.06-0.12v0c0.02-0.05,0.04-0.12,0.04-0.2
	l0.02-0.14h0.14h0.31h0.14l0.02,0.14l0.39,3.55l0.02,0.17h-0.17h-0.36h-0.11l-0.04-0.1c-0.17-0.47-0.35-0.89-0.57-1.24
	c-0.21-0.35-0.45-0.65-0.7-0.89v0c-0.25-0.24-0.52-0.42-0.81-0.54c-0.28-0.12-0.59-0.18-0.91-0.18c-0.27,0-0.52,0.04-0.74,0.11h0
	c-0.22,0.07-0.41,0.19-0.58,0.34c-0.17,0.15-0.29,0.32-0.38,0.51v0c-0.08,0.19-0.12,0.41-0.12,0.65c0,0.19,0.03,0.36,0.09,0.53v0
	c0.06,0.17,0.15,0.33,0.26,0.48c0.12,0.16,0.28,0.32,0.49,0.49c0.21,0.17,0.47,0.35,0.77,0.53l2.04,1.2h0
	c0.42,0.26,0.79,0.51,1.09,0.77c0.3,0.26,0.54,0.51,0.72,0.77c0.18,0.26,0.31,0.54,0.4,0.85c0.09,0.3,0.13,0.63,0.13,0.98
	c0,0.53-0.09,1-0.27,1.43c-0.18,0.43-0.45,0.8-0.81,1.11v0c-0.36,0.32-0.78,0.56-1.25,0.71c-0.47,0.16-1.01,0.24-1.6,0.24
	c-0.28,0-0.56-0.02-0.84-0.06c-0.28-0.04-0.57-0.1-0.86-0.18c-0.27-0.07-0.49-0.13-0.65-0.17c-0.15-0.04-0.23-0.05-0.25-0.05
	c-0.07,0-0.12,0.01-0.17,0.02h0c-0.04,0.01-0.08,0.03-0.11,0.06l0,0c-0.03,0.02-0.05,0.05-0.07,0.09c-0.02,0.04-0.04,0.09-0.05,0.14
	l-0.02,0.13h-0.13h-0.3h-0.13L351.67,220.49z M337.09,220.22v-0.36v-0.15h0.16h0.21c0.28,0,0.52-0.03,0.71-0.08
	c0.18-0.05,0.31-0.13,0.41-0.22c0.09-0.1,0.17-0.25,0.22-0.44c0.05-0.2,0.08-0.46,0.08-0.77v-7.89c0-0.52-0.1-0.87-0.3-1.04
	c-0.1-0.08-0.26-0.15-0.47-0.2c-0.23-0.05-0.52-0.08-0.86-0.09l-0.15,0v-0.15v-0.36v-0.16h0.16h5.96c0.67,0,1.27,0.07,1.78,0.2
	c0.52,0.13,0.97,0.34,1.33,0.61h0c0.37,0.28,0.65,0.61,0.83,1.01c0.18,0.4,0.28,0.85,0.28,1.37c0,0.4-0.07,0.77-0.2,1.11
	c-0.13,0.34-0.33,0.64-0.59,0.91c-0.26,0.27-0.57,0.5-0.95,0.69c-0.31,0.16-0.66,0.29-1.06,0.39c0.7,0.89,1.32,1.67,1.85,2.31
	c0.57,0.69,1.04,1.23,1.41,1.61c0.37,0.38,0.68,0.67,0.95,0.87h0c0.25,0.19,0.45,0.29,0.59,0.3l0.14,0.01v0.14v0.36v0.16h-0.16
	h-2.66h-0.07l-0.05-0.05c-0.37-0.4-0.74-0.81-1.11-1.23c-0.36-0.41-0.72-0.84-1.09-1.29c-0.37-0.45-0.74-0.91-1.1-1.38
	c-0.35-0.45-0.71-0.92-1.06-1.4h-0.99c-0.07,0-0.13,0.01-0.17,0.02c-0.03,0.01-0.06,0.02-0.07,0.03l-0.01,0
	c-0.01,0.01-0.02,0.03-0.03,0.06v0c-0.01,0.04-0.02,0.09-0.02,0.15v2.9c0,0.31,0.03,0.56,0.08,0.76c0.05,0.19,0.13,0.34,0.23,0.44
	c0.1,0.1,0.25,0.18,0.44,0.23c0.21,0.06,0.46,0.08,0.77,0.08h0.15h0.16v0.15v0.36v0.16h-0.16h-5.43h-0.16V220.22z M341,213.82
	c0,0.06,0.01,0.11,0.02,0.15c0.01,0.03,0.02,0.05,0.04,0.07c0.02,0.02,0.04,0.03,0.08,0.04c0.04,0.01,0.1,0.02,0.16,0.02
	c0.7,0,1.3-0.05,1.8-0.16c0.49-0.1,0.89-0.26,1.19-0.46h0c0.29-0.2,0.52-0.45,0.66-0.76c0.15-0.32,0.22-0.7,0.22-1.14
	c0-0.41-0.06-0.76-0.19-1.05c-0.12-0.29-0.3-0.52-0.55-0.71c-0.25-0.19-0.57-0.33-0.97-0.42c-0.41-0.1-0.89-0.14-1.46-0.14
	c-0.25,0-0.45,0.01-0.61,0.04c-0.13,0.02-0.22,0.05-0.27,0.09l0,0c-0.04,0.04-0.07,0.1-0.1,0.2c-0.03,0.11-0.04,0.26-0.04,0.45
	V213.82z M324.17,220.22l0.01-0.36l0-0.15l0.15,0c0.33-0.01,0.61-0.04,0.83-0.09c0.21-0.05,0.36-0.11,0.45-0.2l0,0
	c0.09-0.08,0.16-0.21,0.21-0.38h0c0.05-0.19,0.08-0.43,0.08-0.73v-7.9c0-0.29-0.03-0.53-0.08-0.72v0c-0.05-0.17-0.12-0.31-0.21-0.39
	l0,0c-0.09-0.08-0.25-0.15-0.45-0.21c-0.22-0.06-0.5-0.09-0.84-0.11l-0.15-0.01v-0.15v-0.35v-0.16h0.16h10.05h0.15l0.01,0.15
	l0.16,2.6l0.01,0.16h-0.16h-0.36h-0.13l-0.02-0.13c-0.06-0.36-0.14-0.66-0.25-0.9c-0.1-0.23-0.23-0.4-0.37-0.52v0
	c-0.15-0.12-0.35-0.21-0.62-0.27h0c-0.28-0.06-0.62-0.1-1.03-0.1h-2.97c-0.17,0-0.31,0.01-0.41,0.03c-0.09,0.02-0.15,0.04-0.18,0.07
	l0,0c-0.03,0.02-0.05,0.07-0.07,0.15c-0.02,0.1-0.04,0.24-0.04,0.42v3.16c0,0.11,0.01,0.2,0.02,0.27v0
	c0.01,0.05,0.02,0.08,0.03,0.09c0.01,0.01,0.04,0.02,0.08,0.03c0.07,0.01,0.16,0.02,0.28,0.02h2.34c0.45,0,0.82-0.03,1.11-0.08
	c0.27-0.05,0.47-0.13,0.59-0.23v0c0.12-0.1,0.21-0.24,0.28-0.43c0.07-0.2,0.12-0.46,0.13-0.76l0.01-0.15h0.15h0.36h0.16v0.16v4.04
	v0.16h-0.16h-0.36h-0.14l-0.01-0.15c-0.02-0.32-0.07-0.59-0.14-0.81c-0.07-0.2-0.16-0.35-0.28-0.45l0,0
	c-0.11-0.1-0.31-0.17-0.58-0.23c-0.29-0.06-0.66-0.08-1.11-0.08h-2.36c-0.1,0-0.19,0.01-0.25,0.02c-0.04,0.01-0.07,0.02-0.08,0.03
	l-0.01,0.01c-0.01,0.01-0.02,0.04-0.03,0.08c-0.01,0.07-0.02,0.16-0.02,0.27v3.52c0,0.21,0.01,0.37,0.04,0.5l0,0
	c0.02,0.11,0.05,0.19,0.09,0.24v0c0.04,0.04,0.1,0.07,0.18,0.1c0.1,0.03,0.22,0.04,0.37,0.04h2.75c0.55,0,1.02-0.04,1.41-0.12
	c0.38-0.07,0.69-0.19,0.92-0.34c0.23-0.15,0.45-0.37,0.65-0.66c0.21-0.3,0.41-0.67,0.59-1.11l0.06-0.15l0.15,0.07l0.32,0.16
	l0.12,0.06l-0.04,0.13l-0.92,2.88l-0.03,0.11h-0.11h-10.29h-0.16L324.17,220.22z M316.43,220.56l-4.19-9.56
	c-0.18-0.4-0.34-0.74-0.5-1.01v0c-0.16-0.27-0.3-0.47-0.44-0.61c-0.13-0.13-0.28-0.23-0.43-0.29c-0.16-0.07-0.33-0.1-0.52-0.1
	l-0.15,0v-0.15v-0.36v-0.16h0.16h4.98h0.16l0,0.16l-0.01,0.36l0,0.14l-0.14,0.01c-0.28,0.02-0.52,0.05-0.7,0.08
	c-0.17,0.03-0.3,0.07-0.37,0.1c-0.06,0.03-0.11,0.08-0.14,0.13v0c-0.03,0.06-0.05,0.13-0.05,0.21c0,0.1,0.06,0.32,0.18,0.66
	c0.12,0.35,0.31,0.83,0.56,1.42c0.25,0.58,0.59,1.37,1.04,2.37c0.41,0.91,0.9,1.99,1.48,3.23l2.97-6.58
	c0.05-0.12,0.1-0.22,0.13-0.32v0c0.04-0.11,0.08-0.21,0.11-0.31c0.03-0.08,0.05-0.16,0.06-0.23c0.01-0.06,0.02-0.12,0.02-0.16
	c0-0.1-0.02-0.19-0.05-0.25c-0.03-0.06-0.08-0.12-0.15-0.15l0,0c-0.08-0.04-0.2-0.08-0.35-0.11c-0.17-0.03-0.38-0.06-0.63-0.07
	l-0.14-0.01l0-0.14l-0.01-0.36l0-0.16h0.16h3.55h0.16v0.16v0.36v0.14l-0.15,0.01c-0.14,0.01-0.27,0.04-0.39,0.1
	c-0.12,0.05-0.23,0.13-0.32,0.23c-0.1,0.1-0.22,0.27-0.34,0.49c-0.13,0.23-0.27,0.51-0.42,0.86v0l-4.42,9.9l-0.04,0.09h-0.1h-0.37
	h-0.1L316.43,220.56z M303.18,220.22v-0.36v-0.15l0.15,0c0.33-0.01,0.61-0.04,0.83-0.09c0.2-0.05,0.35-0.12,0.45-0.2v0
	c0.09-0.08,0.17-0.21,0.22-0.39v0c0.05-0.19,0.08-0.44,0.08-0.73v-7.88c0-0.29-0.03-0.53-0.08-0.72c-0.05-0.18-0.13-0.31-0.22-0.4
	c-0.1-0.09-0.25-0.16-0.45-0.21c-0.22-0.06-0.49-0.09-0.81-0.1l-0.15,0v-0.15v-0.36v-0.16h0.15h5.35h0.16l0,0.16l-0.01,0.36l0,0.15
	l-0.15,0.01c-0.34,0.01-0.62,0.05-0.84,0.11c-0.21,0.05-0.36,0.12-0.45,0.21c-0.09,0.09-0.16,0.22-0.21,0.39
	c-0.05,0.19-0.08,0.43-0.08,0.72v7.88c0,0.29,0.03,0.53,0.08,0.72c0.05,0.18,0.12,0.31,0.22,0.39l0,0c0.1,0.09,0.25,0.16,0.45,0.21
	c0.22,0.05,0.49,0.09,0.82,0.09l0.15,0l0,0.15l0.01,0.36l0,0.16h-0.16h-5.35h-0.15V220.22z M291.89,218.25
	c0,0.31,0.03,0.57,0.08,0.77c0.04,0.18,0.11,0.31,0.19,0.38c0.09,0.08,0.24,0.14,0.45,0.2c0.22,0.06,0.5,0.1,0.84,0.12l0.14,0.01
	v0.14v0.36v0.16h-0.16h-4.23h-0.16v-0.16v-0.36v-0.14l0.14-0.01c0.34-0.02,0.62-0.07,0.84-0.12c0.21-0.05,0.36-0.12,0.45-0.2h0
	c0.08-0.07,0.15-0.2,0.19-0.38c0.05-0.2,0.08-0.45,0.08-0.77v-8.18c-0.1-0.17-0.21-0.32-0.32-0.45c-0.12-0.14-0.24-0.25-0.36-0.34v0
	c-0.12-0.08-0.26-0.15-0.4-0.2v0c-0.15-0.05-0.31-0.09-0.48-0.1l-0.14-0.01v-0.14v-0.36v-0.16h0.16h3.03h0.07l0.05,0.06l6.68,8.02
	v-5.96c0-0.31-0.03-0.57-0.08-0.77c-0.05-0.18-0.11-0.3-0.19-0.38c-0.09-0.08-0.23-0.14-0.44-0.19c-0.22-0.06-0.5-0.09-0.84-0.12
	l-0.15-0.01v-0.15v-0.36v-0.16h0.16h4.21h0.15v0.16v0.36v0.15l-0.15,0.01c-0.34,0.02-0.62,0.06-0.84,0.12
	c-0.2,0.05-0.35,0.12-0.44,0.19c-0.08,0.07-0.15,0.2-0.19,0.38c-0.05,0.2-0.08,0.45-0.08,0.77v9.79v0.16h-0.16h-0.36h-0.07
	l-0.05-0.06l-7.66-9.15V218.25z M274.31,208.83v-0.36v-0.16h0.16h5.23h0.16v0.16v0.35v0.15l-0.15,0.01
	c-0.32,0.01-0.58,0.05-0.79,0.11c-0.19,0.06-0.33,0.13-0.42,0.22c-0.09,0.09-0.16,0.25-0.2,0.46c-0.05,0.23-0.08,0.52-0.08,0.88
	v5.04c0,0.68,0.07,1.26,0.2,1.76c0.13,0.49,0.33,0.89,0.59,1.2c0.26,0.31,0.59,0.55,1,0.7c0.41,0.16,0.89,0.24,1.45,0.24
	c0.57,0,1.08-0.08,1.51-0.25c0.44-0.17,0.81-0.42,1.12-0.76c0.31-0.34,0.54-0.74,0.7-1.22c0.16-0.48,0.24-1.03,0.24-1.65v-5.04
	c0-0.35-0.03-0.63-0.08-0.86c-0.05-0.21-0.13-0.38-0.23-0.48v0c-0.1-0.11-0.25-0.19-0.45-0.25c-0.21-0.06-0.48-0.1-0.8-0.1l-0.15,0
	l0-0.15l-0.01-0.36l0-0.16h0.16h4.15h0.15v0.16v0.35v0.15l-0.15,0.01c-0.28,0.01-0.51,0.05-0.7,0.12h0
	c-0.18,0.06-0.31,0.15-0.41,0.26c-0.1,0.11-0.17,0.28-0.22,0.49c-0.05,0.23-0.08,0.51-0.08,0.85v4.81c0,1.7-0.43,2.99-1.29,3.87
	c-0.43,0.44-0.97,0.78-1.6,1c-0.63,0.22-1.36,0.33-2.18,0.33c-0.42,0-0.82-0.03-1.2-0.08c-0.38-0.05-0.74-0.14-1.08-0.25
	c-0.34-0.11-0.65-0.25-0.92-0.41c-0.28-0.16-0.53-0.35-0.74-0.56l0,0c-0.2-0.2-0.37-0.42-0.51-0.66v0c-0.14-0.24-0.26-0.51-0.35-0.8
	l0,0c-0.09-0.29-0.15-0.62-0.2-1c-0.04-0.37-0.06-0.79-0.06-1.24v-4.41c0-0.52-0.03-0.94-0.08-1.26c-0.05-0.31-0.13-0.53-0.23-0.65
	h0c-0.1-0.12-0.25-0.21-0.45-0.28c-0.22-0.07-0.49-0.1-0.82-0.1h-0.16V208.83z M268.24,219.18c-0.38,0.24-0.77,0.45-1.16,0.64
	c-0.39,0.18-0.8,0.34-1.21,0.46v0c-0.41,0.12-0.83,0.22-1.25,0.28h0c-0.42,0.06-0.86,0.09-1.29,0.09c-0.98,0-1.87-0.14-2.66-0.42
	c-0.8-0.28-1.5-0.71-2.11-1.27c-0.61-0.57-1.07-1.22-1.37-1.97h0c-0.3-0.74-0.46-1.57-0.46-2.49c0-0.95,0.15-1.81,0.46-2.58
	c0.31-0.78,0.77-1.46,1.39-2.06c0.62-0.6,1.32-1.05,2.12-1.35c0.8-0.3,1.68-0.45,2.66-0.45c0.38,0,0.76,0.03,1.14,0.09
	c0.38,0.06,0.76,0.16,1.14,0.28c0.38,0.13,0.67,0.22,0.85,0.27v0c0.19,0.06,0.3,0.09,0.31,0.09c0.05,0,0.09-0.01,0.13-0.03
	c0.04-0.02,0.08-0.05,0.11-0.09h0c0.04-0.04,0.07-0.1,0.1-0.16c0.03-0.07,0.06-0.15,0.08-0.24l0.03-0.11l0.12,0l0.29-0.01l0.15,0
	l0.01,0.15l0.18,3.62l0.01,0.16h-0.16h-0.36h-0.11l-0.04-0.1c-0.21-0.53-0.43-0.98-0.69-1.36c-0.25-0.37-0.52-0.67-0.81-0.9
	c-0.29-0.22-0.63-0.39-1.01-0.5c-0.39-0.11-0.83-0.17-1.31-0.17c-0.67,0-1.28,0.12-1.82,0.36c-0.54,0.24-1.01,0.6-1.42,1.08v0
	c-0.41,0.48-0.72,1.05-0.92,1.69c-0.21,0.65-0.31,1.37-0.31,2.18c0,0.82,0.1,1.55,0.31,2.2c0.21,0.65,0.52,1.21,0.93,1.69
	c0.41,0.48,0.89,0.84,1.44,1.08s1.17,0.36,1.86,0.36c0.26,0,0.5-0.02,0.74-0.06h0c0.24-0.04,0.47-0.1,0.7-0.18
	c0.23-0.08,0.44-0.17,0.63-0.28c0.17-0.1,0.32-0.2,0.46-0.32v-3.11c0-0.33-0.02-0.59-0.07-0.79v0c-0.04-0.17-0.09-0.29-0.16-0.34h0
	c-0.08-0.06-0.22-0.11-0.45-0.15c-0.24-0.04-0.55-0.08-0.94-0.09l-0.15-0.01v-0.15v-0.37v-0.16h0.15h5.02h0.16v0.16v0.37v0.15
	l-0.15,0c-0.27,0.01-0.5,0.03-0.68,0.08v0c-0.16,0.04-0.28,0.09-0.36,0.16l0,0c-0.07,0.06-0.12,0.17-0.16,0.33
	c-0.04,0.18-0.06,0.41-0.06,0.7v3.42v0.08L268.24,219.18z M245.2,218.25c0,0.31,0.03,0.57,0.08,0.77h0c0.05,0.18,0.11,0.3,0.19,0.38
	h0c0.09,0.08,0.24,0.14,0.45,0.2c0.22,0.06,0.5,0.1,0.84,0.12l0.14,0.01v0.14v0.36v0.16h-0.16h-4.23h-0.15v-0.16v-0.36v-0.14
	l0.14-0.01c0.34-0.02,0.62-0.07,0.84-0.12c0.21-0.05,0.36-0.12,0.45-0.2h0c0.08-0.07,0.15-0.2,0.19-0.38
	c0.05-0.2,0.08-0.45,0.08-0.77v-8.18c-0.1-0.17-0.21-0.32-0.31-0.45c-0.12-0.14-0.24-0.25-0.36-0.34v0c-0.12-0.09-0.26-0.15-0.4-0.2
	c-0.15-0.05-0.31-0.09-0.48-0.1l-0.14-0.01v-0.14v-0.36v-0.16h0.15h3.03h0.07l0.05,0.06l6.68,8.02v-5.96c0-0.31-0.03-0.57-0.08-0.77
	c-0.05-0.18-0.11-0.3-0.19-0.38c-0.09-0.08-0.23-0.14-0.44-0.19c-0.22-0.06-0.5-0.09-0.84-0.12l-0.15-0.01v-0.15v-0.36v-0.16h0.16
	h4.21h0.16v0.16v0.36v0.15l-0.15,0.01c-0.34,0.02-0.62,0.06-0.84,0.12c-0.2,0.05-0.35,0.12-0.44,0.19c-0.08,0.07-0.15,0.2-0.19,0.38
	c-0.05,0.2-0.08,0.45-0.08,0.77v9.79v0.16h-0.16h-0.36h-0.07l-0.05-0.06l-7.66-9.15V218.25z M235.27,220.22v-0.36v-0.15l0.15,0
	c0.33-0.01,0.61-0.04,0.82-0.09c0.2-0.05,0.36-0.12,0.45-0.2v0c0.09-0.08,0.17-0.21,0.21-0.39v0c0.05-0.19,0.08-0.44,0.08-0.73
	v-7.88c0-0.29-0.03-0.53-0.08-0.72c-0.05-0.18-0.13-0.31-0.22-0.4c-0.1-0.09-0.25-0.16-0.45-0.21c-0.22-0.06-0.49-0.09-0.81-0.1
	l-0.15,0v-0.15v-0.36v-0.16h0.16h5.35h0.16l0,0.16l-0.01,0.36l0,0.15l-0.15,0.01c-0.34,0.01-0.62,0.05-0.84,0.11
	c-0.21,0.05-0.36,0.12-0.45,0.21c-0.09,0.08-0.16,0.22-0.21,0.39c-0.05,0.19-0.08,0.43-0.08,0.72v7.88c0,0.29,0.03,0.53,0.08,0.72
	c0.05,0.18,0.12,0.31,0.22,0.39l0,0c0.1,0.09,0.25,0.16,0.45,0.21c0.22,0.05,0.49,0.09,0.82,0.09l0.15,0l0,0.15l0.01,0.36l0,0.16
	h-0.16h-5.35h-0.16V220.22z M233.77,208.47v0.35v0.15l-0.15,0c-0.32,0.01-0.59,0.04-0.8,0.1c-0.2,0.05-0.35,0.13-0.44,0.22
	c-0.1,0.09-0.17,0.24-0.22,0.44c-0.05,0.21-0.08,0.48-0.08,0.81v6.3c0,0.61-0.07,1.15-0.2,1.61c-0.14,0.47-0.34,0.88-0.62,1.2h0
	c-0.28,0.33-0.62,0.58-1.03,0.75c-0.4,0.16-0.86,0.25-1.38,0.25c-0.32,0-0.62-0.04-0.89-0.12c-0.27-0.08-0.51-0.2-0.73-0.36
	c-0.22-0.16-0.38-0.35-0.49-0.56c-0.11-0.21-0.17-0.45-0.17-0.7c0-0.12,0.02-0.24,0.07-0.35c0.05-0.11,0.11-0.2,0.2-0.28
	c0.09-0.08,0.19-0.14,0.3-0.18c0.11-0.04,0.24-0.06,0.37-0.06c0.13,0,0.25,0.02,0.36,0.05h0c0.11,0.04,0.22,0.09,0.31,0.16l0,0
	c0.09,0.07,0.18,0.16,0.26,0.27c0.07,0.1,0.14,0.23,0.2,0.36l0,0l0,0.01l0,0l0.04,0.1c0.1,0.23,0.2,0.39,0.31,0.5l0,0
	c0.09,0.09,0.19,0.14,0.29,0.14c0.11,0,0.2-0.02,0.28-0.05c0.07-0.03,0.13-0.08,0.18-0.14c0.05-0.07,0.09-0.16,0.12-0.26v0
	c0.03-0.12,0.04-0.25,0.04-0.41v-8.25c0-0.34-0.03-0.61-0.08-0.83c-0.05-0.2-0.13-0.35-0.23-0.44l0,0c-0.1-0.09-0.25-0.17-0.46-0.21
	c-0.22-0.05-0.5-0.08-0.84-0.08h-0.16v-0.16v-0.36v-0.16h0.16h5.33h0.16V208.47z M219.64,220.22v-0.36v-0.15l0.15,0
	c0.33-0.01,0.61-0.04,0.83-0.09c0.2-0.05,0.35-0.12,0.45-0.2v0c0.09-0.08,0.17-0.21,0.21-0.39v0c0.05-0.19,0.08-0.44,0.08-0.73
	v-7.88c0-0.29-0.03-0.53-0.08-0.72c-0.05-0.18-0.13-0.31-0.22-0.4c-0.1-0.09-0.25-0.16-0.45-0.21c-0.22-0.06-0.49-0.09-0.81-0.1
	l-0.15,0v-0.15v-0.36v-0.16h0.16h5.35h0.16l0,0.16l-0.01,0.36l0,0.15l-0.15,0.01c-0.34,0.01-0.62,0.05-0.84,0.11
	c-0.21,0.05-0.36,0.12-0.45,0.21c-0.09,0.09-0.16,0.22-0.21,0.39c-0.05,0.19-0.08,0.43-0.08,0.72v7.88c0,0.29,0.03,0.53,0.08,0.72
	c0.05,0.18,0.12,0.31,0.22,0.39l0,0c0.1,0.09,0.25,0.16,0.45,0.21c0.22,0.05,0.49,0.09,0.82,0.09l0.15,0l0,0.15l0.01,0.36l0,0.16
	h-0.16h-5.35h-0.16V220.22z M206.77,220.22l0.01-0.36l0-0.15l0.15,0c0.33-0.01,0.61-0.04,0.83-0.09c0.21-0.05,0.35-0.11,0.45-0.2
	l0,0c0.09-0.08,0.16-0.21,0.21-0.38h0c0.05-0.19,0.08-0.43,0.08-0.73v-7.9c0-0.29-0.03-0.53-0.08-0.72v0
	c-0.05-0.17-0.12-0.31-0.21-0.39l0,0c-0.09-0.08-0.25-0.15-0.45-0.21c-0.22-0.06-0.5-0.09-0.84-0.11l-0.15-0.01v-0.15v-0.35v-0.16
	h0.16h10.05h0.15l0.01,0.15l0.16,2.6l0.01,0.16h-0.16h-0.36h-0.13l-0.02-0.13c-0.06-0.36-0.14-0.66-0.25-0.9
	c-0.1-0.23-0.23-0.4-0.37-0.52v0c-0.15-0.12-0.35-0.21-0.62-0.27h0c-0.28-0.06-0.62-0.1-1.03-0.1h-2.97c-0.17,0-0.31,0.01-0.41,0.03
	c-0.09,0.02-0.15,0.04-0.18,0.07l0,0c-0.03,0.02-0.05,0.07-0.07,0.15c-0.02,0.1-0.04,0.25-0.04,0.42v3.16c0,0.11,0.01,0.2,0.02,0.27
	c0.01,0.05,0.02,0.08,0.03,0.09c0.01,0.01,0.04,0.02,0.08,0.03c0.07,0.01,0.16,0.02,0.28,0.02h2.34c0.45,0,0.82-0.03,1.11-0.08
	c0.27-0.05,0.47-0.13,0.59-0.23v0c0.12-0.1,0.21-0.24,0.28-0.43c0.07-0.2,0.12-0.46,0.13-0.76l0.01-0.15h0.15h0.36h0.16v0.16v4.04
	v0.16h-0.16h-0.36h-0.14l-0.01-0.15c-0.02-0.32-0.07-0.59-0.14-0.81c-0.07-0.2-0.16-0.35-0.28-0.45l0,0
	c-0.11-0.1-0.31-0.17-0.58-0.23c-0.29-0.06-0.66-0.08-1.11-0.08h-2.36c-0.1,0-0.19,0.01-0.25,0.02c-0.04,0.01-0.07,0.02-0.08,0.03
	l-0.01,0.01c-0.01,0.01-0.02,0.04-0.03,0.08l0,0c-0.01,0.07-0.02,0.16-0.02,0.27v3.52c0,0.2,0.01,0.37,0.04,0.5h0
	c0.02,0.11,0.05,0.19,0.09,0.24v0c0.04,0.04,0.1,0.08,0.18,0.1c0.1,0.03,0.22,0.04,0.37,0.04h2.75c0.55,0,1.02-0.04,1.41-0.12
	c0.38-0.07,0.69-0.19,0.92-0.34c0.23-0.15,0.45-0.37,0.65-0.66c0.21-0.3,0.41-0.67,0.59-1.11l0.06-0.15l0.15,0.07l0.32,0.16
	l0.12,0.06l-0.04,0.13l-0.92,2.88l-0.03,0.11h-0.11h-10.29h-0.16L206.77,220.22z M194.35,220.22l0.01-0.36l0-0.15l0.15,0
	c0.33,0,0.61-0.03,0.83-0.09c0.2-0.05,0.35-0.12,0.45-0.2c0.09-0.09,0.16-0.22,0.21-0.39c0.05-0.19,0.08-0.43,0.08-0.72v-7.9
	c0-0.29-0.03-0.54-0.08-0.73v0c-0.05-0.18-0.12-0.3-0.21-0.39c-0.1-0.08-0.25-0.15-0.45-0.21c-0.22-0.06-0.5-0.09-0.84-0.11
	l-0.15-0.01v-0.15v-0.35v-0.16h0.16h5.64c0.7,0,1.33,0.06,1.88,0.19c0.55,0.13,1.03,0.32,1.43,0.58c0.4,0.26,0.71,0.58,0.91,0.96
	c0.2,0.38,0.31,0.8,0.31,1.28c0,0.33-0.05,0.64-0.16,0.92c-0.11,0.29-0.27,0.56-0.48,0.8c-0.21,0.24-0.47,0.45-0.77,0.63
	c-0.16,0.1-0.34,0.18-0.53,0.26c0.28,0.08,0.53,0.17,0.76,0.28c0.37,0.18,0.69,0.39,0.94,0.65c0.26,0.26,0.45,0.55,0.58,0.89
	c0.13,0.33,0.19,0.7,0.19,1.1c0,0.59-0.11,1.12-0.34,1.56c-0.22,0.45-0.56,0.82-1.01,1.11c-0.44,0.28-1,0.5-1.67,0.64
	c-0.67,0.14-1.45,0.21-2.34,0.21h-5.33h-0.16L194.35,220.22z M198.26,218.7c0,0.15,0.02,0.27,0.05,0.37l0,0
	c0.03,0.08,0.07,0.14,0.11,0.18h0c0.05,0.04,0.16,0.08,0.33,0.1c0.18,0.03,0.43,0.04,0.73,0.04h0.37c0.5,0,0.94-0.05,1.32-0.16
	c0.37-0.11,0.68-0.26,0.94-0.47h0c0.25-0.21,0.44-0.46,0.56-0.76c0.13-0.3,0.19-0.65,0.19-1.05c0-0.41-0.07-0.76-0.21-1.06v0
	c-0.13-0.3-0.34-0.54-0.61-0.74h0c-0.28-0.2-0.63-0.36-1.05-0.46c-0.43-0.1-0.93-0.16-1.5-0.16h-0.66c-0.16,0-0.28,0.01-0.38,0.03
	c-0.07,0.01-0.12,0.03-0.13,0.04v0c-0.01,0.01-0.03,0.05-0.04,0.1c-0.02,0.07-0.03,0.17-0.03,0.29V218.7z M198.26,213.09
	c0,0.16,0.01,0.29,0.02,0.38c0.01,0.07,0.02,0.11,0.03,0.13v0c0.01,0.01,0.04,0.02,0.09,0.03c0.08,0.02,0.19,0.02,0.33,0.02h0.27
	c0.63,0,1.17-0.04,1.62-0.14c0.44-0.09,0.79-0.22,1.05-0.4c0.26-0.17,0.45-0.4,0.57-0.68c0.13-0.28,0.19-0.63,0.19-1.03
	c0-0.39-0.06-0.72-0.17-1c-0.11-0.27-0.29-0.49-0.51-0.66c-0.23-0.17-0.54-0.3-0.92-0.39c-0.39-0.09-0.86-0.14-1.4-0.14
	c-0.31,0-0.56,0.01-0.74,0.04c-0.16,0.02-0.26,0.05-0.31,0.09c-0.04,0.03-0.07,0.1-0.1,0.19c-0.03,0.11-0.04,0.26-0.04,0.45V213.09z
	"/>
<path fill-rule="evenodd" clip-rule="evenodd" fill="#0095C1" d="M490.59,133.72c-0.71-1.92-3.75-2.38-5.61-1.19
	c-2.84,1.82-4.14,5.31-7.22,7.01c-0.82,0.45-1.61,1.93-2.91,1.19c-1.09-0.88-0.22-3.03-0.21-4.53c0.02-3.67,0.72-6.9,0-10.57
	c-0.6-3.03-8.86-8.22-11.97-8.73c-0.29,0.14-0.58,0.29-0.86,0.43c-3.25,5.59,0.69,7.73,2.37,11.65c1.06,2.47,2.62,16.41,1.4,18.87
	c-0.85,1.72-5.57,3.9-7.33,5.07c-4.18,2.77-8.58,5.71-13.37,7.76c-1.98,0.79-3.95,1.58-5.93,2.37c-1.47,0.38-2.5-0.15-3.56,0.54
	c-1.4,6.71,1.65,9.39,8.09,7.22c4.03-1.35,7.26-4.62,10.03-7.33c2.38-2.32,6.96-5.69,9.92-7.33c0.25,0.04,0.5,0.07,0.75,0.11
	c1.21,1.98-0.39,5.05-1.29,6.9c-2.64,5.41-6.81,9.66-12.73,11.65c-2.89,0.97-7.27-0.17-8.52,2.59c0.11,0.25,0.22,0.5,0.32,0.75
	c2.55,0.62,6.43,0.29,9.06-0.11c0.75,0.07,1.51,0.14,2.26,0.21c8.02-1.78,11.73-4.43,15.53-10.46c0.83-1.33,2.19-2.91,2.59-4.53
	c0.95-3.83,1.28-7.35,2.37-10.78c0.38-1.21-0.1-2.8,0.54-3.67c1.21-1.64,3.47-2.81,5.39-3.77c1.04-0.86,2.08-1.72,3.13-2.59
	c1.53-1.1,3.22-1.91,4.64-3.02C488.74,138.43,491.6,136.48,490.59,133.72 M407.33,148.06c-0.46-0.2-0.55-0.18-0.75-0.65
	c-0.93-3.34,4.53-6.73,6.79-7.44c1.29-0.41,1.67,0.39,3.13-0.54c0.72,0.01,0.81,0.07,0.97,0.65
	C417.83,141.6,409.03,147.31,407.33,148.06z M409.06,133.07c-0.15,0.22-0.12,0.18-0.32,0.32c-0.2-0.15-0.18-0.1-0.32-0.32
	c-0.07-0.39-0.14-0.79-0.22-1.19l0.32-0.43c0.22,0.04,0.43,0.07,0.65,0.11C409.29,132.08,409.32,132.69,409.06,133.07z
	 M408.41,127.03c0.47-0.97,1.72-1.37,2.59-1.94h0.32c0.79,1.37-0.67,2.8-1.62,3.45h-1.08C408.31,128.08,408.12,127.62,408.41,127.03
	z M409.28,182.46c-0.81,0.83-1.93,1.04-3.67,0.97c-0.25-0.32-0.5-0.65-0.76-0.97c0.26-1.84,1.74-2.42,2.91-3.34h0.76
	c0.07,0.04,0.14,0.07,0.22,0.11C409.22,180.02,409.32,181.05,409.28,182.46z M422,116.14h0.32c0.87,1.98-3.22,4.79-4.21,6.04h-0.65
	C415.3,118.62,420.28,117.38,422,116.14z M441.84,123.69c-1.4-2.49-4.14-2.31-6.79-1.29c-1.73,0.66-2.75,1.92-4.1,2.8
	c-2.89,1.9-6.02,3.45-8.95,5.18c-1.11,0.65-5.4,3.53-6.04,2.37c-0.57-1.42,0.25-4.83,1.08-5.39c1.12-0.32,2.23-0.65,3.34-0.97
	c4.28-1.78,11.3-6.46,12.94-10.78c-0.75-2.08-4.47-4.99-7.55-4.42c-2.47,0.46-4.44,2.23-6.25,3.45c-2.23-0.33-0.03-5.76-4.96-5.82
	c-1.88,1.89-2.01,4.13-1.73,7.33c0.07,0.61,0.14,1.22,0.22,1.83c-0.41,1.75-2.83,3.65-3.99,4.85c-0.25-0.04-0.5-0.07-0.76-0.11
	c-1.48-3.39-1.44-7.99-6.36-6.36c-0.72,1.28,0.44,2.33,0,4.1c-0.4,1.04-0.79,2.09-1.19,3.13c-0.29,1.16,0.13,2.51-0.43,3.34
	c-1.86,2.77-7.22,2.56-10.03,4.42c-0.76,2.91,4.1,6.03,7.33,5.5c1.52-0.25,1.99-1.1,3.34-1.4c1.25,0.9,2.47,2.99,4.96,2.48
	c1.07-0.22,1.51-0.88,2.8-0.97h0.11c0.22,0.34,0.42,0.57,0.22,1.08c-0.84,1.45-7.99,4.39-9.92,5.5c-4.34,2.49-9.06,4.87-13.26,7.55
	c-2.6,1.66-4.99,4.08-7.66,5.72c-2.23,1.37-10.04,4.62-9.17,8.09c0.18,0.29,0.36,0.58,0.54,0.86c1.7,0.4,2.94-0.02,4.53-0.32
	c1.98-0.32,3.95-0.65,5.93-0.97c4.09-1.6,6.3-5.31,9.6-7.66c1.64-1.17,3.16-2.09,4.85-3.24c1.65-1.12,3.1-3.44,5.61-3.56l0.32,0.32
	c-0.79,2.8-2.15,4.25,0,7.01c3.49,0.74,3.99-3.13,5.93-4.64c1.33-1.04,2.56-1.85,4.21-2.59c0.65-0.29,1.09-0.76,2.05-0.54
	c0.18,0.11,0.36,0.22,0.54,0.32c-0.24,0.89-1.4,0.89-2.16,1.19c-0.56,3.13-1.42,4.52-3.88,5.61c-1.18,0.52-2.03,0.51-2.59,1.62
	l-0.11,0.65c1.83,1.93,2.55,0.61,4.42,1.72c0.34,0.2,0.36,0.3,0.54,0.65c-0.07,0.32-0.14,0.65-0.22,0.97
	c-0.48,0.66-2.7,0.76-3.45,1.08c-1.09,3.08,2.35,3.04,3.34,4.96c0.04,0.25,0.07,0.5,0.11,0.76c-0.65,0.64-2.92,1.47-3.24,2.26
	c-0.83,2.1,4.07,3.77,1.73,6.36c-0.66,0.73-8.73,3.37-10.24,3.67c-1.07,0.21-1.9-0.56-2.8,0c-4.31,2.68,2.93,8.06,5.5,8.3
	c1.75-1.65,1.04-4.44,3.13-5.61c2.17,0.21,5.24,1.96,6.79,3.13c0.57,0.65,1.15,1.29,1.72,1.94c5.05,1,2.06-3.75,3.24-6.15
	c0.7-1.45,7.87-4.46,9.92-4.96c2.15-3.6-2.35-7.04-4.64-7.87c-2.64,1.29-1.64,6.68-4.42,8.09c-0.25,0.04-0.5,0.07-0.75,0.11
	l-0.32-0.32c-0.66-4.82,1.05-9.07,2.48-12.51c0.73-1.76,2.86-4.37,2.48-6.9c-0.22-1.08-0.43-2.16-0.65-3.23
	c-0.45-0.66-1.5-0.52-2.16-0.97c-0.61-1.04-1.22-2.09-1.83-3.13v-0.11c0.6-0.1,0.77,0.17,1.4,0.32c0.21-0.18,0.43-0.36,0.65-0.54
	c0.24-1.51-0.66-2.66,0.11-3.88c0.37-0.6,1.05-0.77,1.62-1.19c2.42-1.78,6.83-4.34,8.2-7.01c-0.1-2.17-3.7-4.71-6.47-3.34
	c-0.85,0.42-1.06,1.1-2.26,1.51h-0.32l0.11-0.54c2.45-1.55,5.2-3.78,8.2-4.64c0.75,0.11,1.51,0.22,2.26,0.32
	c1.4-0.65,2.8-1.29,4.21-1.94c2.25-0.69,3.3,0.26,5.39-1.08C439.47,128.36,443.38,126.42,441.84,123.69z M510.75,158.95
	c-0.65,0.43-1.29,0.86-1.94,1.29c-0.18,0.9-0.36,1.8-0.54,2.7c-0.87,2.01-3.51,5.08-2.7,7.76c0.6,1.31,3.82,3.81,5.82,3.24
	C515.16,172.33,517.35,158.81,510.75,158.95z M544.4,135.23c-0.36-0.22-0.72-0.43-1.08-0.65c-0.55-2.02,0.2-3.68,1.51-4.53h0.54
	C546.57,131.79,546.08,134.59,544.4,135.23z M558.09,134.26c-1.92,1.04-1.64,3.75-4.75,3.88c-0.07-0.04-0.14-0.07-0.22-0.11
	c-0.64-2.94,2.45-5.48,3.77-7.33c0.43-0.83,0.86-1.65,1.29-2.48c0.4-0.32,0.79-0.65,1.19-0.97c0.11-0.47,0.21-0.94,0.32-1.4
	c1.21-1.93,3.54-3.99,4.21-6.36c0.59-2.07-0.33-3.43-0.65-4.96c-2.02-1.21-4.75-0.65-7.23-0.22c-0.39,0.97-0.79,1.94-1.19,2.91
	c0.43,0.72,0.86,1.44,1.29,2.16c0.4,1.56-0.89,2.75-1.29,3.67c-1.5,3.42-2.97,6.6-4.85,9.49c-0.11,0.07-0.22,0.14-0.32,0.22
	c-0.5-1.61-0.18-3.34,0.11-4.96c-0.62-1.21-3.09-1.58-3.24-2.26c0.14-0.47,0.29-0.93,0.43-1.4c0.65-2.82-0.49-4.33-2.91-4.85
	c-0.23-0.37-0.32-0.5-0.32-1.18c2.85-2.78,3.64-5.97,0.22-8.74c-1.21-0.98-2.22-1.9-4.53-1.83c-0.59,0.36-1.19,0.43-1.51,1.08
	c-0.66,1.79,1.37,2.5,0.97,4.1c-0.2,0.8-2.37,5.32-2.91,6.04c-1.2,1.57-4.88,1.12-6.36,3.02c-0.04,0.18-0.07,0.36-0.11,0.54
	c0.78,1.11,2.62,1,3.23,2.16v0.32c-0.59,1.53-2.19,2.45-3.13,3.67v1.08c0.04,0.11,0.07,0.22,0.11,0.32
	c0.32,0.04,0.65,0.07,0.97,0.11c1.11-0.68,2.23-1.37,3.34-2.05c0.97-0.29,1.94-0.57,2.91-0.86c0.73-0.51,0.59-1.28,1.73-1.51h0.11
	c0.75,1.66-1.34,5.03-2.16,6.15c-1.57,0.3-3.6-0.03-4.85,0.54c-0.21,0.83-0.49,1.7-0.32,2.59c0.9,0.5,2.02,0.67,2.48,1.62
	c0.74,2.49-3.55,6.42-3.88,8.73c0.14,0.07,0.29,0.14,0.43,0.22c2.11,0.82,7.71-4.37,8.63-5.61c3.39,0.06,3.82,0.18,5.82-1.29h0.54
	c0.7,0.64,1.8,1.66,1.4,3.02c-0.82,1.73-3.4,2.1-5.18,2.91c-3.08,1.41-12.24,8-16.07,7.01c-0.45-0.9-0.21-2.59-0.54-3.67
	c-1.13-3.66-4.31-9.57-8.74-9.6c-1.47,1.49,0.58,3.23,0.97,4.85c1.52,6.38-0.47,7.24,6.15,9.27c0.24,0.5,0.17,0.75,0,1.29
	c-0.62,0.4-1.73,0.68-2.16,1.29c-0.04,0.22-0.07,0.43-0.11,0.65c0.95,0.92,7.47,1.81,8.95,0.76c4.12-2.92,7.95-6,12.4-8.74
	c0.97-0.65,1.94-1.29,2.91-1.94c0.47-0.04,0.94-0.07,1.4-0.11c1.36-0.59,3.95-3.07,5.61-2.59l0.43,0.32
	c-0.65,5-11.36,10.5-14.77,14.02v0.54l0.11,0.11c3.53-0.42,6.57-2.7,9.38-3.88c1.73-0.36,3.45-0.72,5.18-1.08
	c5.35-2.23,8.66-6.58,11.86-11c0.58-0.8,1.75-1.07,2.16-2.05C568.14,136.7,561.58,132.45,558.09,134.26z M553.67,165.31
	c-0.58-0.26-1.18-1.05-2.26-0.75c-2.69,0.74-4.89,5.27-8.52,4.31c-1.11-2.2,2.46-3.47,1.73-6.47c-0.77-3.15-5.94-3.45-9.49-3.77
	l-0.54,0.32c-2.1,5.58,2.02,4.28,3.34,6.79c0.39,1.12-1.04,2.65-1.29,3.88c-0.19,0.93-0.03,2.01-0.22,2.7
	c-2.07,1.32-4.39,2.2-6.58,3.56c-0.4,0.36-0.79,0.72-1.19,1.08c-1.95,0.91-4.83,0.44-6.25,1.83v0.43c1.88,1.62,5.98,3.37,9.81,2.26
	c1.83-0.9,3.67-1.8,5.5-2.69c0.32,0.19,0.36,0.18,0.54,0.54c0.31,0.87-0.32,2.06-0.54,2.8c-2.25,7.71-8.79,0.92-14.13,3.23
	l-0.11,0.32c0.29,3.62,10.2,6.64,14.45,4.96c2.85-1.13,8.01-4.74,7.01-9.38c-0.41-1.89-1.46-4.19-1.83-5.72
	c0.46-0.73,0.97-1.16,1.83-1.51h0.54c0.17,1.02-0.65,1.29-0.86,2.26c1.56,0.28,2.27-1.27,3.24-1.94c1.2-0.83,2.48-1.9,3.88-2.48
	c1.9-0.79,3.98-1.06,5.5-2.16C557.83,167.05,555.6,166.17,553.67,165.31z M498.46,165.53c-0.84-1.26-6.24-3.59-8.09-4.31
	c-1.69-0.66-2.12-1.88-4.85-1.83c-0.68,0.18-1.37,0.36-2.05,0.54c-1.95,3.08,1.33,4.94,2.59,6.79c1.12,1.65,0.91,3.4,1.83,5.28
	c1.48,3.03,6.55,3.03,10.57,2.26c1.53-2.31,1.53-2.58,0.86-5.5C499.04,167.52,499.07,166.45,498.46,165.53z M359.45,144.72
	c-0.58,0.43-1.15,0.86-1.73,1.29c-1.53,0.92-3.29,1.45-4.74,2.27c-3.59,1.51-7.19,3.02-10.78,4.53l-0.32-0.11
	c-0.38-0.87,1.81-5.3,2.37-6.47c1.04-2.08,2.09-4.17,3.13-6.25c1.94-2.94,4.61-5.76,5.72-9.49c1.06-3.58-5.14-7.09-8.63-7.01
	c-3.14,1.43-7.11,1.41-11.54,1.4h-4.64c-0.97,0.5-1.94,1.01-2.91,1.51c-1.57,2.71,6.02,10.71,10.03,9.92
	c2.37-0.47,3.46-2.93,5.28-3.88l0.65-0.11c0.71,1.67-0.89,3.61-1.4,4.85c-1.61,3.87-2.16,7.59-3.02,12.51
	c-0.27,1.57-1.08,3.65-0.11,4.85c-0.29,2.14-6.18,3.45-8.09,4.42c-4.76,2.42-9.57,4.83-14.88,6.79c-3.07,1.13-9.08,2.48-10.46,4.96
	c0.38,3.39,6.12,7.85,10.35,5.28c7.22-4.38,14.62-8.5,21.78-13.05c1.9-1.21,6.36-5.01,8.73-5.07l0.11,0.11v0.32
	c-0.91,0.8-1.64,1.38-2.37,2.37c0.22,0.42,0.22,0.43,0.65,0.65c3.29-1.52,6.92-3.44,10.35-4.74c1.08-0.18,2.16-0.36,3.23-0.54
	c3.58-1.24,8.21-2.89,10.25-5.72C366.82,147.94,362.58,143.95,359.45,144.72z M289.14,142.99c0.39-1.85,4.02-6.31,5.61-6.9
	c1.48-2.39-1.08-5.2-3.45-5.18c-1.87,0.92-2.71,2.2-4.31,3.13c-3.31,1.92-6.63,3.83-9.92,5.72c-1.24,0.71-4.66,1.85-5.28,2.91
	l-0.11,0.65c3.77,2.34,6.1-1.82,9.81-1.62c0.77,1.17-0.04,2.73-0.97,3.45c-3.3,2.58-6.14,4.89-8.52,8.41h-0.21
	c-0.61-0.93-1.22-1.87-1.83-2.8c-0.86-1.1-1.92-1.5-2.59-2.91c-2.14-0.06-4.14,0-4.85,1.4c0.27,2.63,2.14,4.85,2.8,7.22
	c0.21,0.93,0.43,1.87,0.65,2.8c1.19,0.58,2.37,1.15,3.56,1.73c2.46-0.12,2.58-1.6,3.56-3.23c0.66-0.87,2.23-0.16,3.34-0.65
	c1.26-0.9,2.52-1.8,3.77-2.7c1.47-0.65,2.95-1.29,4.42-1.94c1.76-1.3,3.75-4.3,4.53-6.47C289.54,144.91,288.88,144.24,289.14,142.99
	z M300.68,117.54c-4.8-2-7.9,2.81-10.35,1.72c-1.16-0.62-1.27-2.21-2.7-2.69l-5.5-0.32c-1.38-0.35-2.95-0.77-4.75-0.75
	c-0.76,0.5-1.3,0.77-1.73,1.62c0.45,4.72,3.87,4.58,5.39,7.55c0.04,0.22,0.07,0.43,0.11,0.65c-1.19,1.19-2.77,1.83-4.21,2.8
	c-1.74,1.18-3.46,2.92-5.28,3.99c-1.99,1.17-4.56,1.64-5.5,3.77c-0.04,0.29-0.07,0.58-0.11,0.86c0.76,0.57,1.57,1.18,2.7,1.4
	c1.15,0.23,8.34-1.7,9.38-2.16c1.53-0.66,2.56-2.53,3.77-3.56c2.34-1.98,4.72-3.04,7.66-4.53c2.37-1.2,3.72-3.46,6.79-4.2l2.91,0.54
	c0.95-0.88,4.05-3.3,3.23-5.28C302.16,118.04,301.57,117.91,300.68,117.54z M195.75,165.42c0.63,4.67-4.32,8.53-3.02,12.08
	c0.57,0.07,1.15,0.14,1.73,0.22c1.37-1.21,2.89-2.88,3.88-4.42c0.51-0.79,0.58-1.59,1.29-2.16c2.7-2.15,5.92-3.48,7.55-6.69
	c0.01-4.05-6.2-7.1-10.46-7.01c-1.37,0.4-2.73,0.79-4.1,1.19C189.97,162.99,195.3,162.04,195.75,165.42z M212.14,111.4
	c-3.17,1.75-1.47,5.16-0.75,8.09c-0.14,1.73-0.29,3.45-0.43,5.18c-1.19,7.11-2.97,15.87-2.37,24.05c0.04,2.52,0.07,5.03,0.11,7.55
	c0.36,2.3,1.16,8.85,0.54,11c-0.64,2.24-3.13,3.08-4.31,4.74c-2.49,3.51-6.07,6.95-9.6,9.38c-3.63,2.5-7.31,4.66-8.09,10.03
	c0.91,1.37,1.06,1.31,2.8,1.94c0.87,0.32,1.5,1.31,3.02,0.97c3.42-0.77,9.02-8.73,10.78-11.65c0.79-1.31,0.93-3.14,1.73-4.31
	c0.86-1.28,2.44-4.96,4.53-4.42c1.16,0.73,2.25,4.14,4.64,2.8c1.42-0.69,1.99-4.64,1.51-6.79c-0.54-2.45-1.34-5.28-1.83-8.2
	c-0.3-1.77,0.5-2.83,0.22-4.53c-0.14-1.15-0.29-2.3-0.43-3.45c1.13-6.28,1.31-12.39,3.13-17.79c1.43-4.23,3.86-7.96,4.85-12.29
	c0.35-1.52-0.58-2.48-0.86-3.45C220.08,115.99,217.52,111.38,212.14,111.4z M293.56,162.08c-1.66-2.24-2.65-5.1-6.58-5.07
	c-0.21,0.18-0.43,0.36-0.65,0.54c-0.29,1.25-0.23,3.04,0,4.42c0.23,1.38-0.6,2.4-0.32,3.45c0.32,0.5,0.65,1.01,0.97,1.51
	c1.38,2.64,2.05,4.3,4.53,5.82c2.99-0.04,6.59-2.83,5.18-6.36C295.99,164.63,294.57,163.44,293.56,162.08z M268.65,173.62
	c-1.22-1.03,3.77-4.08,4.64-4.64C276.51,169.21,270.81,174.56,268.65,173.62z M280.41,161.22c-0.4-0.9-1.23-1.44-2.59-1.4
	c-0.43,0.11-0.86,0.21-1.29,0.32c-1.91,0.98-1.31,4.7-3.13,5.61c-0.57,0.11-1.15,0.21-1.72,0.32c-1.46,0.69-3.21,1.48-4.75,2.37
	c-3.72,2.16-7.16,5.02-10.78,7.22c-1.26,0.68-2.52,1.37-3.77,2.05c-0.65,0.57-1.29,1.15-1.94,1.72c-1.07,0.61-2.44,0.55-3.24,1.4
	c-0.53,4.24,3.09,8.81,8.63,6.58c1.17-0.47,6.54-7.57,7.01-8.95c0.87-0.49,1.92-0.14,3.24-0.43c2.59-0.57,5.1-1.2,8.09-0.76
	c2.1,0.31,5.18,1.06,6.04-0.43c1.64-2.86-0.22-7.09-0.22-10.03C279.98,165.1,281.12,162.57,280.41,161.22z M235.98,166.07
	c-0.11-0.32-0.22-0.65-0.32-0.97c1.33-3.27,3.69-6.45,4.85-9.6c0.51-1.39,0.44-2.66,1.19-3.77c1.74-2.61,7.01-3.11,8.09-6.25
	c0.54-1.59-0.06-3.96-1.08-4.64c-0.64-0.43-1.68-0.17-2.05-0.86c-0.71-1.34,1.18-3.77,1.62-4.64c2.63-5.18,0.53-15.64-5.28-15.64
	c-1.37,0.76-3.54,2.29-3.88,3.99c-0.04,1.26-0.07,2.52-0.11,3.77c-1.24,3.99-2.88,8.73-4.42,12.62c-0.9,2.26-1.23,4.71-2.48,6.58
	c-1.28,1.92-3.24,3.38-5.18,4.64c-0.47,0.22-0.93,0.43-1.4,0.65c-0.07,0.39-0.14,0.79-0.21,1.19c0.72,0.49,1.64,0.64,2.8,0.75
	c0.95,1.61-0.53,3.39-1.08,4.85c-1.51,4-7.15,12.96-2.16,16.61c0.99,0.72,2.5,1.1,3.88,0.54c1.87-0.72,3.74-1.44,5.61-2.16
	c3.57-1.05,9.6-1.13,10.46-4.75c0.24-1.01-0.32-1.77-0.65-2.26C241.55,162.72,239.24,166.38,235.98,166.07z M523.59,141.48
	c0.04,0.04,0.07,0.07,0.11,0.11c1.29-0.12,7.01-0.34,7.66-1.08c0.25-1.28,0.34-2.97-0.11-4.1c-1.04-2.62-6.2-8.73-9.6-8.84
	c-0.18,0.14-0.36,0.29-0.54,0.43c-0.9,3.59,1.58,7.74,3.34,9.81C524.18,139.19,523.58,139.91,523.59,141.48z"/>
<path fill-rule="evenodd" clip-rule="evenodd" fill="#0095C1" d="M146.98,215.39c-5.83,3.57-13.39,4.83-20.73,5.31H0l1.42-5.31
	H146.98z M155.6,205.08c-0.77,2.04-1.79,3.82-3,5.37H2.74l1.24-4.62h88.4c2.21,0.11,4.31-0.16,6.24-0.74H155.6z M157.3,194.78
	c0,1.93-0.14,3.71-0.4,5.37h-50.88c1.2-1.54,2.07-3.34,2.5-5.37H157.3z M155.52,184.47c0.63,1.75,1.1,3.54,1.39,5.36h-48.15
	c-0.14-1.78-0.48-3.67-1.11-5.36H155.52z M149.55,174.17c1.42,1.75,2.65,3.53,3.69,5.37h-49.45c-1.07-0.57-2.34-0.87-3.85-0.79
	l-88.45-0.02l1.08-4.56H149.55z M157.82,163.86c-3.18,2.6-7.29,4.51-12.48,5.37H13.73l1.05-4.43l88.76,0.37
	c1.76,0.09,4.28-0.32,6.93-1.31H157.82z M165.03,153.49c-0.68,1.88-1.57,3.69-2.69,5.37h-43.97c1.47-1.49,2.71-3.28,3.54-5.37
	H165.03z M166.81,143.2c-0.02,1.79-0.17,3.59-0.48,5.37h-43.31c0.04-0.64,0.05-1.3,0.02-1.98c-0.05-1.22-0.09-2.33-0.18-3.39H166.81
	z M165.12,132.92c0.62,1.72,1.07,3.52,1.36,5.36l-44.74,0.22v0l0,0l-71.16,0.06l1.51-5.6l64.5,0.17l0,0l0.34,0l0.59,0l0,0
	L165.12,132.92z M158.88,122.62c1.5,1.63,2.83,3.43,3.95,5.37h-49.67c-1.4-0.69-3.52-1.09-7.16-1.18l-80.97,0.01l1.16-4.2H158.88z
	 M28.7,113.49H137.7c5.46-0.3,10.78,1.29,15.34,4.21H27.54L28.7,113.49z M46.2,154.89h39.27l1.89-7.12H48.09L46.2,154.89z
	 M35.26,196.09H74.2l1.89-7.12H37.15L35.26,196.09z"/>
</svg>
